<svg id="svg" version="1.1" width="400" height="460.8695652173913" viewBox="0 0 400 460.8695652173913" xmlns="http://www.w3.org/2000/svg" xmlns:xlink="http://www.w3.org/1999/xlink" ><g id="svgg"><path id="path0" d="M186.200 16.009 C 185.320 16.179,183.430 16.530,182.000 16.788 C 179.359 17.265,175.831 18.063,169.700 19.568 C 167.646 20.073,164.052 21.383,162.600 22.156 C 161.940 22.507,161.180 22.796,160.911 22.798 C 160.642 22.799,159.562 23.186,158.511 23.657 C 153.574 25.872,152.452 26.392,150.400 27.413 C 146.805 29.202,144.746 30.425,139.401 33.946 C 131.090 39.421,118.263 51.598,113.431 58.600 C 112.369 60.140,111.137 61.798,110.694 62.285 C 110.251 62.772,109.689 63.512,109.444 63.931 C 107.756 66.822,107.036 68.015,106.023 69.600 C 105.390 70.590,103.937 73.290,102.793 75.600 C 101.649 77.910,100.373 80.455,99.956 81.254 C 99.540 82.054,99.199 82.954,99.198 83.254 C 99.196 83.555,98.924 84.320,98.593 84.955 C 98.261 85.590,97.711 87.072,97.369 88.248 C 97.027 89.423,96.595 90.479,96.409 90.595 C 96.222 90.710,95.950 91.568,95.803 92.502 C 95.657 93.436,95.206 95.280,94.803 96.600 C 90.429 110.901,90.415 137.192,94.772 151.000 C 95.189 152.320,95.644 154.201,95.782 155.180 C 95.921 156.159,96.212 157.173,96.428 157.434 C 96.644 157.694,97.073 158.783,97.381 159.854 C 98.676 164.353,102.676 173.660,103.633 174.400 C 103.776 174.510,104.028 175.050,104.193 175.600 C 104.359 176.150,104.760 176.903,105.084 177.272 C 105.409 177.642,105.972 178.494,106.337 179.165 C 108.493 183.134,111.281 187.382,112.399 188.400 C 112.604 188.587,113.390 189.697,114.800 191.792 C 115.415 192.705,120.825 198.732,123.030 200.958 C 126.347 204.309,132.437 209.633,134.973 211.400 C 135.605 211.840,136.415 212.475,136.773 212.812 C 137.891 213.863,141.952 216.519,143.426 217.163 C 143.881 217.362,144.921 217.978,145.737 218.532 C 146.554 219.086,149.106 220.469,151.409 221.604 C 153.712 222.740,155.697 223.834,155.822 224.035 C 155.946 224.236,156.354 224.400,156.730 224.400 C 157.105 224.400,158.084 224.760,158.904 225.200 C 159.725 225.640,160.679 226.000,161.024 226.000 C 161.369 226.000,162.495 226.341,163.526 226.757 C 166.282 227.871,170.347 229.183,172.400 229.623 C 173.390 229.835,174.740 230.261,175.400 230.568 C 176.060 230.876,177.860 231.253,179.400 231.406 C 180.940 231.558,183.501 231.925,185.091 232.221 C 192.150 233.533,208.920 233.306,217.600 231.781 C 220.794 231.220,222.046 230.975,227.000 229.942 C 228.100 229.713,229.900 229.185,231.000 228.769 C 232.100 228.354,233.630 227.893,234.400 227.744 C 235.170 227.596,236.427 227.143,237.194 226.738 C 237.961 226.332,238.923 226.000,239.332 226.000 C 239.742 226.000,240.554 225.744,241.138 225.431 C 241.722 225.118,243.550 224.199,245.200 223.390 C 249.727 221.170,254.311 218.661,254.866 218.100 C 255.138 217.825,255.539 217.600,255.758 217.600 C 255.978 217.600,256.797 217.175,257.578 216.655 C 258.360 216.135,259.945 215.115,261.100 214.388 C 262.255 213.660,263.200 212.916,263.200 212.733 C 263.200 212.550,263.435 212.400,263.721 212.400 C 264.186 212.400,267.492 210.215,268.000 209.573 C 268.110 209.433,269.550 208.194,271.200 206.819 C 275.540 203.201,277.805 201.023,280.350 198.018 C 281.587 196.557,283.832 193.930,285.338 192.181 C 286.843 190.431,289.075 187.470,290.296 185.600 C 291.518 183.730,293.167 181.210,293.962 180.000 C 295.198 178.117,298.429 171.822,300.223 167.800 C 300.517 167.140,301.217 165.576,301.779 164.325 C 302.340 163.073,302.806 161.813,302.814 161.525 C 302.821 161.236,303.175 160.280,303.600 159.400 C 304.025 158.520,304.379 157.530,304.386 157.200 C 304.394 156.870,304.745 155.520,305.168 154.200 C 310.730 136.821,310.737 111.976,305.185 95.000 C 304.753 93.680,304.394 92.240,304.386 91.800 C 304.379 91.360,304.025 90.280,303.600 89.400 C 303.175 88.520,302.821 87.500,302.814 87.132 C 302.806 86.765,301.979 84.695,300.976 82.532 C 299.972 80.370,298.696 77.610,298.140 76.400 C 297.584 75.190,296.971 73.930,296.777 73.600 C 296.583 73.270,296.060 72.280,295.615 71.400 C 295.170 70.520,294.450 69.260,294.015 68.600 C 293.580 67.940,292.938 66.893,292.588 66.272 C 290.912 63.305,287.660 58.942,284.099 54.883 C 283.383 54.067,281.683 52.050,280.319 50.400 C 278.956 48.750,276.482 46.193,274.821 44.718 C 273.159 43.242,271.080 41.388,270.200 40.596 C 266.572 37.334,257.256 31.292,249.500 27.172 C 248.209 26.486,247.723 26.259,241.600 23.485 C 240.390 22.936,238.578 22.108,237.574 21.644 C 236.569 21.180,235.399 20.799,234.974 20.798 C 234.548 20.796,233.675 20.521,233.033 20.187 C 232.391 19.852,230.771 19.335,229.433 19.038 C 228.095 18.741,225.830 18.221,224.400 17.883 C 220.038 16.851,217.527 16.369,214.600 16.001 C 211.186 15.572,188.428 15.579,186.200 16.009 M216.600 21.964 C 218.800 22.422,221.140 22.798,221.800 22.799 C 222.884 22.800,224.163 23.153,230.000 25.060 C 230.990 25.383,232.790 25.894,234.001 26.196 C 235.211 26.498,236.741 27.026,237.401 27.370 C 238.060 27.714,238.834 27.996,239.121 27.998 C 239.407 27.999,240.307 28.340,241.121 28.755 C 241.934 29.170,244.580 30.469,247.000 31.643 C 249.420 32.817,251.638 34.007,251.929 34.289 C 252.219 34.570,252.584 34.800,252.740 34.800 C 252.895 34.800,254.277 35.698,255.811 36.796 C 257.345 37.894,258.940 39.019,259.356 39.296 C 259.771 39.573,260.581 40.176,261.156 40.636 C 261.730 41.096,262.505 41.637,262.877 41.839 C 266.075 43.573,280.734 58.354,283.822 62.960 C 284.250 63.597,284.870 64.520,285.200 65.011 C 285.530 65.501,286.451 66.869,287.246 68.051 C 288.880 70.478,291.329 74.659,292.220 76.543 C 292.547 77.234,293.105 78.340,293.461 79.000 C 294.908 81.683,295.600 83.183,295.600 83.635 C 295.600 83.898,295.940 84.852,296.356 85.756 C 297.608 88.476,299.167 92.903,299.437 94.504 C 299.576 95.332,299.840 96.101,300.022 96.214 C 300.205 96.326,300.470 97.269,300.611 98.309 C 300.753 99.349,301.209 101.460,301.625 103.000 C 303.326 109.298,304.575 127.497,303.642 132.400 C 303.412 133.610,303.036 136.499,302.806 138.821 C 302.577 141.142,302.031 144.291,301.594 145.819 C 301.158 147.347,300.800 149.021,300.800 149.538 C 300.800 150.056,300.542 151.046,300.226 151.740 C 299.911 152.433,299.388 153.990,299.064 155.200 C 298.295 158.077,297.243 161.057,296.380 162.800 C 295.999 163.570,295.563 164.785,295.412 165.500 C 295.260 166.215,294.979 166.800,294.787 166.800 C 294.595 166.800,294.265 167.385,294.053 168.100 C 293.842 168.815,293.115 170.390,292.439 171.600 C 291.763 172.810,290.989 174.250,290.719 174.800 C 290.306 175.641,286.111 182.106,283.711 185.600 C 280.029 190.961,269.136 201.880,263.129 206.231 C 261.958 207.080,260.910 207.870,260.800 207.988 C 260.584 208.219,258.996 209.258,254.600 212.042 C 250.516 214.629,250.333 214.739,248.800 215.502 C 248.030 215.886,247.256 216.425,247.080 216.700 C 246.904 216.975,246.564 217.200,246.324 217.200 C 246.084 217.200,245.148 217.536,244.244 217.948 C 241.344 219.267,238.238 220.466,236.833 220.811 C 236.082 220.995,234.912 221.407,234.233 221.727 C 233.115 222.254,229.979 223.267,224.049 225.015 C 222.866 225.364,219.716 225.911,217.049 226.230 C 214.382 226.549,211.300 226.977,210.200 227.181 C 206.754 227.821,190.117 227.691,187.479 227.004 C 186.220 226.676,183.707 226.231,181.895 226.015 C 180.083 225.798,177.716 225.347,176.636 225.011 C 175.556 224.675,174.225 224.400,173.678 224.400 C 172.603 224.400,165.275 222.153,164.607 221.618 C 164.383 221.439,163.579 221.159,162.819 220.997 C 161.581 220.731,154.515 217.303,153.433 216.442 C 153.195 216.253,152.550 215.965,152.000 215.802 C 151.450 215.639,150.730 215.279,150.400 215.002 C 150.070 214.726,148.630 213.883,147.200 213.130 C 143.633 211.251,141.798 210.050,139.239 207.921 C 138.930 207.664,137.760 206.836,136.639 206.081 C 133.933 204.260,122.353 192.516,119.349 188.547 C 114.264 181.829,113.349 180.567,112.863 179.600 C 111.662 177.208,111.058 176.159,110.540 175.561 C 109.732 174.629,104.400 163.954,104.400 163.269 C 104.400 162.949,104.067 161.948,103.660 161.044 C 102.733 158.986,101.651 155.890,101.129 153.800 C 100.908 152.920,100.404 151.030,100.007 149.600 C 99.300 147.049,97.852 139.260,97.385 135.490 C 96.901 131.585,97.172 112.702,97.766 109.000 C 98.611 103.727,99.198 100.897,100.006 98.200 C 100.402 96.880,100.847 95.088,100.996 94.219 C 101.145 93.349,101.612 91.961,102.033 91.135 C 102.455 90.308,102.800 89.397,102.800 89.110 C 102.800 88.823,103.160 87.916,103.600 87.096 C 104.040 86.275,104.400 85.343,104.400 85.025 C 104.400 84.708,105.210 82.887,106.200 80.978 C 107.190 79.070,108.000 77.287,108.000 77.016 C 108.000 76.744,108.360 76.107,108.800 75.600 C 109.240 75.093,109.600 74.537,109.600 74.365 C 109.600 73.972,112.029 69.981,112.700 69.271 C 112.975 68.981,113.200 68.499,113.200 68.200 C 113.200 67.901,113.425 67.417,113.700 67.123 C 113.975 66.830,114.817 65.692,115.571 64.595 C 116.325 63.498,117.177 62.330,117.464 62.000 C 117.752 61.670,118.932 60.230,120.088 58.800 C 121.244 57.370,122.912 55.454,123.795 54.542 C 124.678 53.630,125.963 52.280,126.651 51.542 C 129.456 48.534,134.712 43.716,136.400 42.607 C 137.390 41.957,139.035 40.744,140.056 39.912 C 141.076 39.081,142.046 38.400,142.210 38.400 C 142.375 38.400,143.706 37.635,145.168 36.700 C 149.147 34.156,149.058 34.206,154.000 31.789 C 160.959 28.387,161.218 28.277,166.400 26.491 C 167.390 26.149,169.010 25.562,170.000 25.186 C 170.990 24.810,172.682 24.389,173.760 24.251 C 174.837 24.112,175.931 23.823,176.191 23.608 C 176.450 23.393,177.908 23.033,179.431 22.809 C 180.954 22.585,183.820 22.044,185.800 21.606 C 190.979 20.460,210.473 20.687,216.600 21.964 M225.867 50.977 C 225.243 51.313,224.040 51.774,223.193 52.002 C 221.873 52.357,218.480 54.741,216.375 56.791 C 211.540 61.502,207.716 72.116,210.024 74.424 C 210.975 75.375,213.123 75.361,213.646 74.400 C 214.296 73.207,215.600 70.035,215.600 69.648 C 215.600 68.164,221.246 62.370,224.554 60.461 C 230.713 56.904,242.293 59.179,245.893 64.651 C 246.164 65.063,246.865 66.120,247.450 67.000 C 250.127 71.021,251.164 78.218,249.517 81.344 C 249.301 81.754,248.774 83.354,248.345 84.900 L 247.566 87.712 248.453 88.656 C 249.962 90.262,252.808 88.779,254.319 85.600 C 254.580 85.050,254.962 84.330,255.168 84.000 C 257.800 79.771,257.706 67.330,255.016 64.000 C 254.750 63.670,254.284 62.770,253.981 62.000 C 253.334 60.354,247.931 54.798,246.012 53.806 C 239.822 50.605,229.302 49.128,225.867 50.977 M193.000 87.168 C 192.120 87.341,190.950 87.666,190.400 87.891 C 189.850 88.116,188.410 88.432,187.200 88.593 C 185.990 88.753,184.370 89.199,183.600 89.583 C 182.830 89.968,181.570 90.508,180.800 90.783 C 180.030 91.059,178.680 91.541,177.800 91.853 C 176.920 92.166,175.794 92.628,175.298 92.880 C 174.551 93.259,173.726 93.104,170.498 91.982 C 166.497 90.590,158.716 89.876,155.050 90.564 C 149.358 91.632,147.165 100.340,151.426 104.957 C 152.216 105.813,153.036 106.893,153.249 107.357 C 153.461 107.820,153.898 108.650,154.221 109.200 C 155.158 110.797,154.584 112.166,151.400 115.931 C 148.342 119.548,147.616 119.996,144.800 120.002 C 140.880 120.011,137.869 121.641,134.856 125.385 C 132.687 128.079,132.469 150.812,134.592 152.935 C 134.869 153.212,135.374 153.976,135.713 154.632 C 136.959 157.041,141.449 160.843,148.202 165.208 C 152.080 167.714,152.938 168.209,157.692 170.682 C 158.293 170.995,158.880 171.405,158.997 171.595 C 159.114 171.784,159.735 172.054,160.378 172.195 C 161.761 172.499,162.868 174.363,163.548 177.533 C 163.797 178.692,164.270 180.162,164.600 180.800 C 164.930 181.438,165.208 182.374,165.218 182.880 C 165.227 183.386,165.511 184.520,165.847 185.400 C 166.184 186.280,166.648 187.797,166.878 188.771 C 167.498 191.401,169.392 194.186,171.519 195.597 L 173.400 196.845 180.600 196.723 L 187.801 196.600 189.447 195.276 C 191.159 193.899,193.200 190.436,193.200 188.908 C 193.200 187.942,194.381 185.158,194.971 184.732 C 195.176 184.585,199.479 184.495,204.536 184.532 L 213.728 184.600 214.865 188.128 C 217.164 195.264,219.204 196.600,227.800 196.600 C 235.790 196.600,239.380 194.536,240.217 189.460 C 240.367 188.547,240.736 187.350,241.037 186.800 C 241.337 186.250,241.754 184.900,241.964 183.800 C 242.333 181.865,242.947 179.762,244.239 176.000 C 244.579 175.010,245.098 173.120,245.392 171.800 C 246.196 168.196,247.087 166.075,248.566 164.248 C 249.300 163.341,250.199 162.060,250.565 161.400 C 250.930 160.740,251.753 159.390,252.394 158.400 C 254.256 155.524,255.442 153.107,255.733 151.600 C 255.881 150.830,256.252 149.660,256.557 149.000 C 256.862 148.340,257.388 147.147,257.725 146.350 C 258.265 145.075,258.554 144.868,260.113 144.634 C 266.536 143.671,269.412 134.204,264.657 129.677 C 262.795 127.904,260.487 126.803,259.182 127.064 C 257.887 127.323,257.445 126.719,257.012 124.102 C 256.857 123.168,256.586 122.315,256.411 122.207 C 256.235 122.098,255.968 121.352,255.817 120.550 C 255.667 119.748,255.196 118.444,254.772 117.652 C 254.347 116.860,254.000 115.977,254.000 115.690 C 254.000 115.403,253.668 114.680,253.263 114.084 C 252.857 113.488,252.003 112.190,251.366 111.200 C 249.572 108.416,245.262 103.189,243.636 101.827 C 242.831 101.152,241.639 100.097,240.986 99.482 C 240.334 98.867,239.170 97.976,238.400 97.503 C 237.630 97.029,236.910 96.534,236.800 96.402 C 236.468 96.003,232.731 93.879,230.600 92.877 C 223.959 89.758,222.834 89.324,219.949 88.772 C 218.547 88.503,216.860 88.005,216.200 87.665 C 214.854 86.970,196.058 86.568,193.000 87.168 M216.800 94.758 C 218.230 95.215,219.838 95.592,220.374 95.595 C 220.909 95.598,222.079 95.942,222.974 96.360 C 223.868 96.778,225.249 97.324,226.043 97.573 C 228.057 98.203,235.950 102.782,237.400 104.161 C 238.060 104.788,239.230 105.725,240.000 106.241 C 240.770 106.758,241.940 107.826,242.600 108.615 C 243.260 109.403,244.475 110.795,245.300 111.707 C 246.125 112.619,246.800 113.495,246.800 113.654 C 246.800 113.813,247.031 114.181,247.314 114.471 C 248.089 115.268,250.255 118.913,250.601 120.003 C 250.769 120.531,251.130 121.187,251.405 121.462 C 251.679 121.736,252.020 122.645,252.162 123.480 C 252.388 124.810,253.475 127.789,254.396 129.600 C 254.606 130.014,255.328 130.200,256.726 130.200 C 258.543 130.200,258.917 130.362,260.372 131.778 C 264.222 135.525,262.122 139.572,256.316 139.596 C 254.928 139.601,253.387 141.243,252.557 143.600 C 252.209 144.590,251.581 146.140,251.162 147.044 C 250.743 147.948,250.400 149.068,250.400 149.532 C 250.400 150.325,248.155 154.042,247.500 154.333 C 247.335 154.407,247.200 154.677,247.200 154.933 C 247.199 155.190,246.749 155.923,246.200 156.562 C 245.650 157.201,245.200 157.902,245.200 158.119 C 245.200 158.336,244.429 159.433,243.486 160.557 C 241.007 163.512,240.548 164.359,240.000 167.000 C 239.730 168.302,239.279 169.735,238.999 170.184 C 238.719 170.633,238.368 171.693,238.219 172.540 C 238.070 173.387,237.704 174.647,237.406 175.340 C 237.107 176.033,236.288 178.490,235.587 180.800 C 234.885 183.110,233.938 185.945,233.482 187.100 L 232.653 189.200 228.175 189.200 C 225.063 189.200,223.582 189.048,223.317 188.700 C 222.782 187.999,220.802 181.953,220.792 180.993 C 220.770 178.618,217.658 175.528,215.580 175.816 C 204.095 177.408,204.559 177.391,198.432 176.433 C 189.620 175.055,187.644 176.428,186.049 185.035 C 185.883 185.935,185.341 187.240,184.846 187.935 L 183.946 189.200 180.174 189.200 L 176.402 189.200 175.451 187.228 C 174.928 186.144,174.377 184.569,174.228 183.728 C 173.994 182.412,173.382 180.349,171.521 174.600 C 171.307 173.940,170.891 172.535,170.597 171.478 C 169.765 168.495,167.757 166.380,163.923 164.447 C 162.095 163.526,159.700 162.251,158.600 161.614 C 157.500 160.977,156.240 160.284,155.800 160.075 C 153.702 159.076,146.588 153.978,144.184 151.751 C 141.590 149.346,141.226 147.821,141.213 139.280 C 141.196 128.887,141.454 128.400,146.982 128.400 C 150.464 128.400,151.862 127.734,154.600 124.768 C 156.663 122.535,160.395 117.878,160.398 117.535 C 160.399 117.389,161.030 116.313,161.800 115.144 C 163.326 112.827,163.499 111.614,162.634 109.308 C 162.323 108.479,161.957 107.295,161.821 106.677 C 161.684 106.059,160.935 104.645,160.155 103.535 C 159.374 102.425,158.389 100.709,157.966 99.720 L 157.195 97.923 160.898 98.117 C 165.048 98.335,167.222 98.841,170.313 100.307 C 172.674 101.426,176.392 101.420,178.114 100.294 C 178.601 99.975,180.350 99.141,182.000 98.439 C 183.650 97.738,185.451 96.918,186.002 96.617 C 186.553 96.317,188.143 95.864,189.535 95.612 C 190.927 95.359,192.456 94.979,192.933 94.767 C 196.118 93.349,212.377 93.343,216.800 94.758 M199.635 108.079 C 198.956 109.002,198.400 110.184,198.400 110.705 C 198.400 112.010,197.700 113.200,196.933 113.200 C 195.088 113.200,190.741 116.732,189.172 119.506 C 187.499 122.464,187.289 127.756,188.751 130.121 C 189.218 130.876,189.600 131.696,189.600 131.942 C 189.600 132.596,191.729 135.567,192.211 135.585 C 192.437 135.593,193.067 135.914,193.611 136.298 C 194.783 137.125,198.277 138.628,200.800 139.391 C 207.932 141.548,209.785 143.358,209.022 147.425 C 208.180 151.910,199.073 154.066,196.400 150.413 C 195.206 148.781,191.946 148.634,191.350 150.186 C 190.985 151.138,192.714 154.245,194.293 155.474 C 197.442 157.926,198.400 158.919,198.412 159.741 C 198.418 160.214,198.956 161.185,199.606 161.900 C 201.971 164.499,205.278 163.404,206.749 159.535 C 207.016 158.831,207.555 158.386,208.348 158.211 C 209.006 158.067,209.759 157.690,210.021 157.374 C 210.283 157.058,210.729 156.800,211.012 156.800 C 214.491 156.800,218.917 144.518,216.516 141.522 C 216.286 141.235,215.960 140.550,215.791 140.000 C 215.479 138.979,213.648 136.310,213.093 136.064 C 212.924 135.990,212.488 135.630,212.125 135.264 C 211.452 134.588,208.052 133.175,204.800 132.221 C 197.539 130.090,194.720 127.219,196.168 123.428 C 197.943 118.780,204.654 117.545,208.753 121.110 C 210.527 122.653,213.241 122.600,213.851 121.011 C 214.143 120.252,212.121 117.167,210.376 115.709 C 207.457 113.270,206.800 112.462,206.800 111.309 C 206.800 106.900,202.070 104.768,199.635 108.079 M67.300 268.012 C 66.096 268.497,66.985 270.971,70.026 275.600 C 70.243 275.930,70.790 276.920,71.243 277.800 C 71.696 278.680,72.869 280.840,73.851 282.600 C 74.832 284.360,75.997 286.520,76.440 287.400 C 76.883 288.280,77.672 289.720,78.195 290.600 C 78.717 291.480,79.434 292.823,79.788 293.585 C 80.141 294.347,80.672 295.247,80.968 295.585 C 81.264 295.923,81.638 296.650,81.800 297.200 C 81.962 297.750,82.318 298.470,82.592 298.800 C 82.866 299.130,84.126 301.380,85.392 303.800 C 86.658 306.220,87.853 308.371,88.047 308.580 C 88.241 308.789,88.418 316.349,88.440 325.380 C 88.462 334.411,88.605 342.250,88.758 342.800 L 89.035 343.800 95.818 343.899 C 99.657 343.955,102.860 343.832,103.200 343.614 C 103.713 343.286,103.829 340.719,104.000 325.915 L 104.200 308.600 105.568 306.200 C 106.320 304.880,107.353 303.080,107.863 302.200 C 108.373 301.320,109.009 300.150,109.278 299.600 C 109.546 299.050,111.066 296.260,112.655 293.400 C 115.548 288.194,118.467 282.803,120.018 279.800 C 120.473 278.920,121.277 277.480,121.805 276.600 C 122.334 275.720,123.142 274.280,123.601 273.400 C 124.061 272.520,124.780 271.170,125.199 270.400 C 125.618 269.630,125.970 268.894,125.981 268.764 C 126.046 267.959,123.387 267.600,117.361 267.600 C 110.076 267.600,108.833 267.905,108.045 269.888 C 107.802 270.500,107.062 271.900,106.401 273.000 C 105.740 274.100,104.838 275.720,104.396 276.600 C 103.955 277.480,103.125 279.010,102.552 280.000 C 101.978 280.990,100.833 283.060,100.007 284.600 C 99.181 286.140,98.064 288.163,97.523 289.096 L 96.541 290.791 95.492 289.696 C 94.914 289.093,93.769 287.340,92.946 285.800 C 92.122 284.260,91.034 282.280,90.527 281.400 C 90.021 280.520,89.247 279.080,88.808 278.200 C 87.986 276.552,87.512 275.734,86.372 273.992 C 86.009 273.438,85.579 272.564,85.416 272.051 C 85.061 270.932,83.343 268.339,82.676 267.915 C 82.004 267.488,68.390 267.574,67.300 268.012 M162.200 267.982 C 161.100 268.168,159.531 268.608,158.713 268.960 C 157.895 269.312,156.905 269.603,156.513 269.606 C 156.121 269.609,154.090 270.468,152.000 271.515 C 140.017 277.517,132.794 287.195,130.739 300.000 C 130.214 303.271,130.487 313.088,131.136 314.289 C 131.400 314.778,131.789 316.085,131.999 317.194 C 132.399 319.305,134.175 323.423,135.074 324.329 C 135.364 324.619,135.600 325.041,135.600 325.265 C 135.600 325.490,136.005 326.206,136.500 326.856 C 138.316 329.242,141.770 333.403,142.027 333.515 C 142.173 333.579,143.819 334.839,145.685 336.315 C 150.460 340.094,154.151 342.097,157.243 342.591 C 158.209 342.745,159.990 343.157,161.200 343.507 C 164.181 344.369,173.452 344.357,176.000 343.487 C 176.990 343.149,178.430 342.753,179.200 342.607 C 181.125 342.240,184.800 340.774,185.954 339.912 C 186.479 339.521,187.109 339.197,187.354 339.193 C 188.891 339.168,196.988 332.023,199.813 328.200 C 200.463 327.320,201.089 326.510,201.202 326.400 C 205.637 322.115,208.473 304.662,205.964 297.098 C 205.544 295.833,205.200 294.472,205.200 294.074 C 205.200 288.688,192.402 274.100,185.100 271.164 C 184.495 270.921,184.000 270.568,184.000 270.379 C 184.000 270.190,183.325 269.924,182.500 269.787 C 181.675 269.650,179.920 269.181,178.600 268.745 C 175.884 267.849,165.766 267.378,162.200 267.982 M213.600 267.958 L 212.600 268.236 212.485 292.218 C 212.362 317.836,212.498 319.901,214.618 324.600 C 216.123 327.936,216.484 328.700,217.115 329.877 C 218.393 332.260,221.643 335.516,225.127 337.905 C 230.448 341.554,232.408 342.393,238.600 343.675 C 243.482 344.686,253.815 342.895,257.600 340.382 C 257.930 340.163,258.768 339.722,259.463 339.402 C 260.981 338.703,267.829 331.969,268.195 330.815 C 268.337 330.367,268.610 330.000,268.800 330.000 C 268.990 330.000,269.272 329.595,269.426 329.100 C 269.579 328.605,270.012 327.750,270.388 327.200 C 271.018 326.277,271.781 324.320,272.884 320.800 C 273.757 318.012,273.799 268.838,272.929 268.178 C 271.996 267.471,260.947 267.368,259.444 268.053 L 258.451 268.505 258.294 292.153 C 258.129 317.003,257.971 319.243,256.249 321.146 C 255.892 321.540,255.600 321.976,255.600 322.113 C 255.600 323.022,250.016 327.200,248.802 327.200 C 248.459 327.200,247.746 327.502,247.219 327.872 C 245.437 329.120,239.065 328.831,236.600 327.390 C 234.346 326.072,229.600 321.449,229.600 320.572 C 229.600 320.256,229.240 319.325,228.800 318.504 C 228.025 317.059,228.000 316.248,228.000 292.786 C 228.000 274.477,227.883 268.443,227.520 268.080 C 226.993 267.553,215.419 267.452,213.600 267.958 M281.900 268.006 C 280.988 268.571,280.795 342.093,281.702 343.334 C 282.148 343.944,282.962 344.008,289.002 343.910 L 295.800 343.800 296.023 329.800 C 296.146 322.100,296.281 315.770,296.323 315.734 C 296.538 315.550,299.200 318.213,299.200 318.612 C 299.200 318.867,299.560 319.402,300.000 319.800 C 300.440 320.198,300.800 320.688,300.800 320.889 C 300.800 321.089,301.250 321.843,301.800 322.564 C 302.350 323.286,302.800 324.056,302.800 324.276 C 302.800 324.496,303.160 325.002,303.600 325.400 C 304.040 325.798,304.400 326.272,304.400 326.452 C 304.400 326.633,305.570 328.506,307.000 330.615 C 308.430 332.724,309.600 334.548,309.600 334.667 C 309.600 334.787,310.050 335.419,310.600 336.073 C 311.150 336.727,311.600 337.490,311.600 337.769 C 311.600 338.048,311.960 338.602,312.400 339.000 C 312.840 339.398,313.200 339.895,313.200 340.104 C 313.200 340.432,313.819 341.300,315.622 343.500 C 316.103 344.087,333.007 344.235,333.365 343.656 C 333.628 343.231,331.774 339.442,330.981 338.784 C 330.661 338.519,330.400 338.153,330.400 337.971 C 330.400 337.789,329.815 336.805,329.100 335.785 C 328.385 334.764,327.582 333.540,327.315 333.065 C 327.048 332.589,326.642 331.930,326.413 331.600 C 325.888 330.841,321.889 324.658,320.723 322.800 C 320.239 322.030,319.538 321.040,319.165 320.600 C 317.590 318.744,317.765 317.280,319.668 316.382 C 322.685 314.960,323.425 314.463,325.234 312.647 C 328.112 309.758,328.617 308.997,331.179 303.680 C 333.121 299.650,333.139 287.722,331.207 284.118 C 330.763 283.290,330.400 282.482,330.400 282.324 C 330.400 281.945,328.947 279.825,327.200 277.654 C 325.625 275.697,320.174 271.200,319.377 271.200 C 319.091 271.200,318.613 270.956,318.315 270.658 C 315.984 268.327,285.019 266.071,281.900 268.006 M172.271 283.217 C 176.943 283.839,182.287 286.702,185.166 290.125 C 185.735 290.801,186.482 291.635,186.827 291.977 C 190.375 295.500,192.629 306.341,190.907 311.600 C 189.396 316.218,188.197 318.374,185.511 321.307 C 184.159 322.783,180.903 325.179,180.231 325.193 C 180.029 325.197,179.566 325.469,179.204 325.797 C 174.780 329.800,163.949 329.610,156.370 325.396 C 154.807 324.527,150.029 319.626,149.385 318.232 C 149.072 317.554,148.654 316.730,148.455 316.400 C 145.684 311.790,145.158 302.732,147.352 297.402 C 150.353 290.111,157.492 284.186,164.400 283.251 C 168.084 282.752,168.760 282.749,172.271 283.217 M311.282 284.542 C 319.327 288.416,318.882 299.226,310.498 303.596 C 308.629 304.570,297.349 304.712,296.412 303.773 C 296.127 303.487,296.021 300.104,296.093 293.591 L 296.200 283.836 297.200 283.536 C 299.827 282.748,308.903 283.397,311.282 284.542 M222.800 358.174 C 219.464 358.706,215.058 360.207,214.357 361.051 C 214.107 361.353,213.731 361.600,213.522 361.600 C 211.045 361.600,201.672 372.974,201.613 376.051 C 201.606 376.409,201.301 377.399,200.935 378.251 C 200.015 380.393,199.982 389.638,200.888 391.400 C 201.228 392.060,201.632 393.364,201.788 394.298 C 201.943 395.232,202.218 396.088,202.400 396.200 C 202.582 396.312,203.122 397.213,203.601 398.202 C 204.080 399.191,204.635 400.000,204.836 400.000 C 205.036 400.000,205.200 400.242,205.200 400.537 C 205.200 402.498,215.671 410.400,218.270 410.400 C 218.586 410.400,219.676 410.779,220.694 411.243 C 224.390 412.926,233.724 412.270,239.000 409.957 C 242.699 408.335,249.971 402.008,250.653 399.819 C 250.793 399.369,251.034 398.910,251.189 398.800 C 253.654 397.046,256.171 383.839,254.615 380.829 C 253.768 379.190,253.852 379.200,240.606 379.200 L 228.478 379.200 228.039 380.460 C 227.497 382.015,227.461 387.984,227.986 389.364 L 228.373 390.380 234.843 390.490 C 241.859 390.609,242.400 390.790,241.867 392.838 C 241.334 394.889,235.451 400.000,233.625 400.000 C 233.348 400.000,232.520 400.285,231.785 400.634 C 229.278 401.823,222.206 400.758,218.978 398.705 C 208.179 391.835,209.228 375.262,220.800 369.920 C 225.832 367.597,233.025 368.342,237.699 371.670 C 239.309 372.817,240.142 372.451,243.737 369.016 L 246.873 366.019 246.137 365.084 C 244.827 363.421,242.655 361.800,240.200 360.652 C 238.880 360.034,237.440 359.334,237.000 359.096 C 234.424 357.702,228.269 357.302,222.800 358.174 M66.500 358.442 C 65.848 359.118,65.765 410.013,66.414 411.226 C 67.593 413.429,91.435 411.987,94.675 409.517 C 106.193 400.737,106.786 387.019,96.039 378.006 C 95.510 377.563,94.867 377.200,94.609 377.200 C 93.173 377.200,92.287 375.284,92.569 372.791 C 92.877 370.066,92.269 366.326,91.372 365.429 C 91.057 365.114,90.800 364.684,90.800 364.472 C 90.800 363.948,87.221 360.000,86.747 360.000 C 86.538 360.000,85.830 359.603,85.174 359.117 C 83.696 358.025,67.469 357.438,66.500 358.442 M108.267 358.267 C 108.120 358.413,108.000 366.762,108.000 376.819 L 108.000 395.105 109.032 397.846 C 112.411 406.823,120.265 412.037,130.578 412.151 L 135.000 412.200 138.520 410.440 C 144.139 407.631,147.649 403.883,150.254 397.913 L 151.351 395.400 151.501 377.272 C 151.614 363.681,151.533 359.001,151.177 358.572 C 150.658 357.947,142.246 357.729,141.320 358.317 C 140.963 358.544,140.809 362.958,140.716 375.611 C 140.593 392.500,140.586 392.612,139.651 394.558 C 138.498 396.959,135.605 399.847,133.999 400.200 C 133.345 400.344,132.706 400.628,132.581 400.831 C 132.044 401.699,126.452 401.243,124.792 400.195 C 118.998 396.538,118.801 395.735,118.800 375.874 C 118.800 365.385,118.652 359.271,118.386 358.774 C 117.966 357.990,108.993 357.540,108.267 358.267 M157.100 358.226 C 156.366 358.977,156.758 411.608,157.500 411.913 C 159.065 412.555,172.491 412.190,175.200 411.431 C 176.630 411.031,178.520 410.569,179.400 410.405 C 184.053 409.538,190.948 404.071,193.783 399.000 C 198.994 389.683,198.116 375.137,191.895 367.729 C 188.962 364.236,182.948 360.000,180.922 360.000 C 180.611 360.000,179.511 359.605,178.478 359.123 C 176.531 358.213,157.878 357.431,157.100 358.226 M259.467 358.267 C 258.948 358.786,259.157 411.397,259.680 411.920 C 260.210 412.450,288.925 412.563,290.800 412.043 C 291.784 411.770,291.802 411.693,291.901 407.183 C 292.039 400.873,293.061 401.423,280.919 401.269 C 268.957 401.117,270.014 401.635,270.006 395.923 C 269.998 390.209,269.706 390.400,278.427 390.400 C 286.737 390.400,286.400 390.640,286.400 384.717 C 286.400 379.141,286.888 379.449,277.640 379.200 L 270.200 379.000 270.200 374.000 L 270.200 369.000 280.600 368.800 C 286.320 368.690,291.225 368.454,291.500 368.276 C 292.423 367.679,292.180 358.925,291.226 358.414 C 290.367 357.954,259.921 357.813,259.467 358.267 M296.700 358.432 C 296.095 358.784,295.538 368.100,296.100 368.465 C 296.155 368.501,299.170 368.636,302.800 368.765 L 309.400 369.000 309.504 390.311 L 309.607 411.622 310.630 412.011 C 311.990 412.528,318.647 412.510,319.626 411.986 C 320.376 411.585,320.400 410.925,320.400 390.600 C 320.400 365.987,319.504 368.800,327.341 368.800 C 330.307 368.800,333.019 368.691,333.367 368.557 C 334.310 368.195,334.310 358.605,333.367 358.243 C 332.243 357.811,297.457 357.991,296.700 358.432 M81.820 370.187 C 82.966 372.929,81.335 375.358,78.506 375.125 L 77.000 375.000 76.879 372.442 C 76.715 368.948,76.809 368.800,79.208 368.800 C 81.150 368.800,81.267 368.862,81.820 370.187 M177.284 369.976 C 180.107 371.256,183.295 374.062,184.251 376.108 C 184.584 376.819,185.146 377.940,185.501 378.600 C 187.725 382.734,185.894 392.281,182.122 396.217 C 177.762 400.767,169.124 403.051,168.039 399.940 C 167.213 397.571,167.450 369.727,168.300 369.232 C 169.834 368.339,174.530 368.728,177.284 369.976 M88.474 386.356 C 94.367 388.619,93.824 398.085,87.682 400.178 C 85.078 401.066,77.384 401.058,77.043 400.167 C 76.712 399.304,76.733 386.600,77.067 386.267 C 77.466 385.868,87.405 385.945,88.474 386.356 M88.285 433.979 C 84.951 436.907,86.448 443.600,90.437 443.600 C 91.378 443.600,93.200 445.138,93.200 445.933 C 93.200 447.333,91.706 447.723,89.826 446.813 C 85.824 444.875,85.248 448.850,89.234 450.904 C 93.576 453.141,99.920 447.177,96.663 443.920 C 96.368 443.625,95.932 443.027,95.695 442.592 C 95.457 442.156,94.394 441.457,93.331 441.038 C 90.761 440.025,90.400 439.699,90.400 438.400 C 90.400 436.842,91.183 436.300,92.416 437.005 C 96.198 439.169,98.371 438.056,96.114 435.111 C 94.036 432.401,90.641 431.910,88.285 433.979 M117.700 433.212 C 116.689 433.619,116.510 434.862,117.361 435.567 C 117.669 435.823,118.040 436.520,118.185 437.116 C 118.330 437.712,119.141 439.640,119.986 441.400 C 120.832 443.160,121.652 445.050,121.809 445.600 C 121.966 446.150,122.320 446.870,122.595 447.200 C 122.870 447.530,123.269 448.340,123.481 449.000 C 124.197 451.231,125.778 450.156,127.008 446.600 C 127.236 445.940,128.073 444.050,128.867 442.400 C 129.661 440.750,130.442 438.950,130.603 438.400 C 130.763 437.850,131.129 437.130,131.416 436.800 C 132.884 435.112,132.420 432.800,130.613 432.800 C 129.510 432.800,128.779 433.631,127.623 436.200 C 124.998 442.034,124.038 442.904,123.405 440.023 C 123.264 439.381,122.909 438.656,122.616 438.413 C 122.323 438.170,121.969 437.361,121.829 436.614 C 121.585 435.314,119.647 432.773,118.940 432.825 C 118.753 432.839,118.195 433.013,117.700 433.212 M135.400 433.221 L 134.200 433.570 134.336 441.885 C 134.416 446.805,134.640 450.404,134.885 450.700 C 135.401 451.324,143.686 451.396,144.826 450.786 C 147.002 449.621,144.938 447.600,141.573 447.600 C 137.314 447.600,136.624 444.311,140.800 443.910 C 144.788 443.526,144.963 440.748,141.027 440.304 C 135.923 439.729,136.815 436.767,142.200 436.411 L 145.400 436.200 145.525 434.900 C 145.714 432.939,139.761 431.952,135.400 433.221 M155.100 433.232 C 154.219 433.745,154.016 449.856,154.880 450.720 C 156.336 452.176,158.000 450.922,158.000 448.370 C 158.000 444.710,158.316 444.001,159.950 443.995 C 162.952 443.983,163.841 443.298,163.356 441.368 C 163.141 440.511,162.891 440.400,161.185 440.400 C 159.020 440.400,158.000 439.691,158.000 438.186 C 158.000 436.846,159.093 436.400,162.374 436.400 L 165.200 436.400 165.200 434.843 C 165.200 433.792,164.994 433.207,164.567 433.043 C 163.519 432.641,155.852 432.794,155.100 433.232 M172.577 433.228 C 166.060 435.121,164.375 444.850,169.800 449.259 C 173.211 452.031,174.518 452.306,178.159 451.014 C 190.062 446.793,184.699 429.705,172.577 433.228 M186.416 433.570 C 185.776 434.767,185.797 448.716,186.441 450.131 C 187.564 452.595,190.000 451.170,190.000 448.050 C 190.000 447.168,190.180 446.336,190.400 446.200 C 190.620 446.064,190.800 446.113,190.800 446.309 C 190.800 446.505,191.250 446.906,191.800 447.200 C 192.350 447.494,192.800 447.993,192.800 448.307 C 192.800 449.385,195.193 451.200,196.615 451.200 C 198.491 451.200,198.799 450.018,197.436 448.051 C 196.146 446.191,196.124 444.938,197.358 443.622 C 199.678 441.146,199.250 436.373,196.512 434.200 C 194.449 432.563,187.197 432.110,186.416 433.570 M208.889 433.423 C 207.720 434.242,207.492 448.696,208.623 450.311 C 210.153 452.496,211.998 450.947,212.006 447.471 C 212.014 444.318,212.136 444.165,214.922 443.823 L 217.245 443.537 217.122 442.068 C 217.002 440.621,216.971 440.597,215.000 440.393 C 212.469 440.131,212.000 439.823,212.000 438.425 C 212.000 436.785,212.671 436.450,216.219 436.318 C 219.659 436.190,220.679 435.136,218.993 433.450 C 218.072 432.529,210.196 432.507,208.889 433.423 M221.067 433.067 C 220.560 433.574,220.761 450.201,221.280 450.720 C 222.743 452.183,224.400 451.057,224.400 448.600 C 224.400 446.037,225.151 445.285,226.078 446.920 C 228.088 450.465,228.966 451.200,231.192 451.200 C 232.364 451.200,233.320 449.801,232.525 449.250 C 230.493 447.841,230.109 445.159,231.684 443.365 C 234.458 440.206,233.432 435.382,229.560 433.380 C 228.411 432.785,221.599 432.534,221.067 433.067 M236.400 433.158 L 235.400 433.436 235.292 441.681 C 235.159 451.853,234.771 451.200,240.953 451.200 C 245.275 451.200,247.200 450.639,247.200 449.379 C 247.200 448.719,244.358 447.603,242.674 447.601 C 238.218 447.598,237.607 444.438,241.955 443.885 C 245.285 443.461,245.882 440.400,242.635 440.400 C 240.256 440.400,239.200 439.785,239.200 438.400 C 239.200 436.917,240.258 436.403,243.326 436.395 C 246.383 436.386,247.200 436.078,247.200 434.933 C 247.200 433.128,240.480 432.024,236.400 433.158 M249.100 433.232 C 248.219 433.745,248.016 449.856,248.880 450.720 C 249.928 451.768,258.748 451.348,259.026 450.237 C 259.523 448.258,258.663 447.600,255.577 447.600 C 253.024 447.600,252.745 447.518,252.350 446.651 C 251.582 444.965,252.474 444.000,254.800 444.000 C 257.023 444.000,257.672 443.355,257.316 441.496 C 257.122 440.482,256.962 440.400,255.182 440.400 C 250.034 440.400,250.827 436.527,256.018 436.319 C 259.172 436.193,260.205 435.093,258.780 433.376 C 258.207 432.686,250.241 432.567,249.100 433.232 M262.000 433.158 L 261.000 433.436 260.892 441.529 C 260.757 451.583,260.601 451.210,264.914 451.170 C 270.200 451.121,272.167 449.949,274.627 445.382 C 278.007 439.108,269.662 431.028,262.000 433.158 M282.179 433.227 C 276.337 434.925,274.059 443.799,278.334 448.204 C 281.791 451.766,283.884 452.389,287.771 451.010 C 299.673 446.790,294.300 429.704,282.179 433.227 M105.657 435.421 C 104.996 436.642,104.338 438.172,104.195 438.821 C 104.053 439.469,103.774 440.000,103.576 440.000 C 103.378 440.000,103.099 440.495,102.957 441.100 C 102.714 442.134,101.784 444.174,99.932 447.738 C 98.288 450.901,100.590 452.634,102.937 450.000 C 103.934 448.881,104.196 448.800,106.834 448.800 C 109.442 448.800,109.755 448.893,110.862 450.000 C 113.309 452.447,115.568 451.048,114.051 448.023 C 113.658 447.241,112.968 445.790,112.517 444.800 C 110.092 439.478,109.584 438.376,108.420 435.900 C 106.897 432.662,107.130 432.702,105.657 435.421 M296.346 433.633 C 295.476 436.322,295.418 445.927,296.245 450.300 C 296.756 453.002,299.600 450.925,299.600 447.850 C 299.600 445.048,300.580 445.371,303.581 449.161 C 305.053 451.020,306.121 450.601,307.818 447.500 C 308.836 445.642,310.400 446.497,310.400 448.912 C 310.400 450.841,312.516 451.819,313.747 450.459 C 314.334 449.810,314.404 448.770,314.309 442.159 L 314.200 434.600 313.200 434.729 C 312.650 434.800,311.983 435.160,311.719 435.529 C 311.454 435.898,310.824 436.799,310.319 437.531 C 308.839 439.675,305.577 443.791,305.270 443.902 C 304.899 444.036,303.470 442.592,302.005 440.600 C 300.095 438.004,299.701 437.491,298.170 435.600 C 296.398 433.411,296.413 433.427,296.346 433.633 M194.578 437.957 C 195.847 440.412,192.892 442.788,190.476 441.255 C 189.456 440.609,190.031 437.072,191.200 436.794 C 192.804 436.413,193.990 436.821,194.578 437.957 M228.462 437.748 C 229.966 439.549,228.579 441.732,226.064 441.522 L 224.600 441.400 224.477 439.238 C 224.307 436.253,226.521 435.426,228.462 437.748 M179.300 438.229 C 183.509 442.218,179.245 449.114,173.788 447.141 C 168.151 445.103,169.601 436.838,175.600 436.815 C 177.578 436.808,177.951 436.950,179.300 438.229 M269.221 438.327 C 272.637 441.743,271.265 446.913,266.927 446.973 L 265.000 447.000 264.886 442.424 C 264.727 436.027,265.855 434.961,269.221 438.327 M288.832 438.300 C 293.040 442.241,289.045 448.997,283.575 447.192 C 277.890 445.315,279.108 436.800,285.062 436.800 C 287.017 436.800,287.389 436.948,288.832 438.300 M108.000 444.234 C 108.000 444.880,107.057 445.206,106.386 444.792 C 105.940 444.516,105.935 444.260,106.358 443.333 C 106.882 442.182,108.000 442.795,108.000 444.234 " stroke="none" fill="#0e0e0e" fill-rule="evenodd"></path><path id="path1" d="M0.000 230.400 L 0.000 460.800 200.000 460.800 L 400.000 460.800 400.000 230.400 L 400.000 0.000 200.000 0.000 L 0.000 0.000 0.000 230.400 M214.600 16.001 C 217.527 16.369,220.038 16.851,224.400 17.883 C 225.830 18.221,228.095 18.741,229.433 19.038 C 230.771 19.335,232.391 19.852,233.033 20.187 C 233.675 20.521,234.548 20.796,234.974 20.798 C 235.399 20.799,236.569 21.180,237.574 21.644 C 238.578 22.108,240.390 22.936,241.600 23.485 C 249.199 26.928,248.190 26.426,254.000 29.657 C 257.373 31.533,261.009 33.876,266.800 37.905 C 267.790 38.594,269.320 39.805,270.200 40.596 C 271.080 41.388,273.159 43.242,274.821 44.718 C 276.482 46.193,278.956 48.750,280.319 50.400 C 281.683 52.050,283.383 54.067,284.099 54.883 C 287.660 58.942,290.912 63.305,292.588 66.272 C 292.938 66.893,293.580 67.940,294.015 68.600 C 294.450 69.260,295.170 70.520,295.615 71.400 C 296.060 72.280,296.583 73.270,296.777 73.600 C 296.971 73.930,297.584 75.190,298.140 76.400 C 298.696 77.610,299.972 80.370,300.976 82.532 C 301.979 84.695,302.806 86.765,302.814 87.132 C 302.821 87.500,303.175 88.520,303.600 89.400 C 304.025 90.280,304.379 91.360,304.386 91.800 C 304.394 92.240,304.753 93.680,305.185 95.000 C 310.737 111.976,310.730 136.821,305.168 154.200 C 304.745 155.520,304.394 156.870,304.386 157.200 C 304.379 157.530,304.025 158.520,303.600 159.400 C 303.175 160.280,302.821 161.236,302.814 161.525 C 302.806 161.813,302.340 163.073,301.779 164.325 C 301.217 165.576,300.517 167.140,300.223 167.800 C 298.429 171.822,295.198 178.117,293.962 180.000 C 293.167 181.210,291.518 183.730,290.296 185.600 C 289.075 187.470,286.843 190.431,285.338 192.181 C 283.832 193.930,281.587 196.557,280.350 198.018 C 277.805 201.023,275.540 203.201,271.200 206.819 C 269.550 208.194,268.110 209.433,268.000 209.573 C 267.492 210.215,264.186 212.400,263.721 212.400 C 263.435 212.400,263.200 212.550,263.200 212.733 C 263.200 212.916,262.255 213.660,261.100 214.388 C 259.945 215.115,258.360 216.135,257.578 216.655 C 256.797 217.175,255.978 217.600,255.758 217.600 C 255.539 217.600,255.138 217.825,254.866 218.100 C 254.311 218.661,249.727 221.170,245.200 223.390 C 243.550 224.199,241.722 225.118,241.138 225.431 C 240.554 225.744,239.742 226.000,239.332 226.000 C 238.923 226.000,237.961 226.332,237.194 226.738 C 236.427 227.143,235.170 227.596,234.400 227.744 C 233.630 227.893,232.100 228.354,231.000 228.769 C 229.900 229.185,228.100 229.713,227.000 229.942 C 222.046 230.975,220.794 231.220,217.600 231.781 C 208.920 233.306,192.150 233.533,185.091 232.221 C 183.501 231.925,180.940 231.558,179.400 231.406 C 177.860 231.253,176.060 230.876,175.400 230.568 C 174.740 230.261,173.390 229.835,172.400 229.623 C 170.347 229.183,166.282 227.871,163.526 226.757 C 162.495 226.341,161.369 226.000,161.024 226.000 C 160.679 226.000,159.725 225.640,158.904 225.200 C 158.084 224.760,157.105 224.400,156.730 224.400 C 156.354 224.400,155.946 224.236,155.822 224.035 C 155.697 223.834,153.712 222.740,151.409 221.604 C 149.106 220.469,146.554 219.086,145.737 218.532 C 144.921 217.978,143.881 217.362,143.426 217.163 C 141.952 216.519,137.891 213.863,136.773 212.812 C 136.415 212.475,135.605 211.840,134.973 211.400 C 132.437 209.633,126.347 204.309,123.030 200.958 C 120.825 198.732,115.415 192.705,114.800 191.792 C 113.390 189.697,112.604 188.587,112.399 188.400 C 111.281 187.382,108.493 183.134,106.337 179.165 C 105.972 178.494,105.409 177.642,105.084 177.272 C 104.760 176.903,104.359 176.150,104.193 175.600 C 104.028 175.050,103.776 174.510,103.633 174.400 C 102.676 173.660,98.676 164.353,97.381 159.854 C 97.073 158.783,96.644 157.694,96.428 157.434 C 96.212 157.173,95.921 156.159,95.782 155.180 C 95.644 154.201,95.189 152.320,94.772 151.000 C 90.415 137.192,90.429 110.901,94.803 96.600 C 95.206 95.280,95.657 93.436,95.803 92.502 C 95.950 91.568,96.222 90.710,96.409 90.595 C 96.595 90.479,97.027 89.423,97.369 88.248 C 97.711 87.072,98.261 85.590,98.593 84.955 C 98.924 84.320,99.196 83.555,99.198 83.254 C 99.199 82.954,99.540 82.054,99.956 81.254 C 100.373 80.455,101.649 77.910,102.793 75.600 C 103.937 73.290,105.390 70.590,106.023 69.600 C 107.036 68.015,107.756 66.822,109.444 63.931 C 109.689 63.512,110.251 62.772,110.694 62.285 C 111.137 61.798,112.369 60.140,113.431 58.600 C 118.263 51.598,131.090 39.421,139.401 33.946 C 144.746 30.425,146.805 29.202,150.400 27.413 C 152.452 26.392,153.574 25.872,158.511 23.657 C 159.562 23.186,160.642 22.799,160.911 22.798 C 161.180 22.796,161.940 22.507,162.600 22.156 C 164.052 21.383,167.646 20.073,169.700 19.568 C 175.831 18.063,179.359 17.265,182.000 16.788 C 183.430 16.530,185.320 16.179,186.200 16.009 C 188.428 15.579,211.186 15.572,214.600 16.001 M185.800 21.606 C 183.820 22.044,180.954 22.585,179.431 22.809 C 177.908 23.033,176.450 23.393,176.191 23.608 C 175.931 23.823,174.837 24.112,173.760 24.251 C 172.682 24.389,170.990 24.810,170.000 25.186 C 169.010 25.562,167.390 26.149,166.400 26.491 C 161.218 28.277,160.959 28.387,154.000 31.789 C 149.058 34.206,149.147 34.156,145.168 36.700 C 143.706 37.635,142.375 38.400,142.210 38.400 C 142.046 38.400,141.076 39.081,140.056 39.912 C 139.035 40.744,137.390 41.957,136.400 42.607 C 134.712 43.716,129.456 48.534,126.651 51.542 C 125.963 52.280,124.678 53.630,123.795 54.542 C 122.912 55.454,121.244 57.370,120.088 58.800 C 118.932 60.230,117.752 61.670,117.464 62.000 C 117.177 62.330,116.325 63.498,115.571 64.595 C 114.817 65.692,113.975 66.830,113.700 67.123 C 113.425 67.417,113.200 67.901,113.200 68.200 C 113.200 68.499,112.975 68.981,112.700 69.271 C 112.029 69.981,109.600 73.972,109.600 74.365 C 109.600 74.537,109.240 75.093,108.800 75.600 C 108.360 76.107,108.000 76.744,108.000 77.016 C 108.000 77.287,107.190 79.070,106.200 80.978 C 105.210 82.887,104.400 84.708,104.400 85.025 C 104.400 85.343,104.040 86.275,103.600 87.096 C 103.160 87.916,102.800 88.823,102.800 89.110 C 102.800 89.397,102.455 90.308,102.033 91.135 C 101.612 91.961,101.145 93.349,100.996 94.219 C 100.847 95.088,100.402 96.880,100.006 98.200 C 99.198 100.897,98.611 103.727,97.766 109.000 C 97.172 112.702,96.901 131.585,97.385 135.490 C 97.852 139.260,99.300 147.049,100.007 149.600 C 100.404 151.030,100.908 152.920,101.129 153.800 C 101.651 155.890,102.733 158.986,103.660 161.044 C 104.067 161.948,104.400 162.949,104.400 163.269 C 104.400 163.954,109.732 174.629,110.540 175.561 C 111.058 176.159,111.662 177.208,112.863 179.600 C 113.349 180.567,114.264 181.829,119.349 188.547 C 122.353 192.516,133.933 204.260,136.639 206.081 C 137.760 206.836,138.930 207.664,139.239 207.921 C 141.798 210.050,143.633 211.251,147.200 213.130 C 148.630 213.883,150.070 214.726,150.400 215.002 C 150.730 215.279,151.450 215.639,152.000 215.802 C 152.550 215.965,153.195 216.253,153.433 216.442 C 154.515 217.303,161.581 220.731,162.819 220.997 C 163.579 221.159,164.383 221.439,164.607 221.618 C 165.275 222.153,172.603 224.400,173.678 224.400 C 174.225 224.400,175.556 224.675,176.636 225.011 C 177.716 225.347,180.083 225.798,181.895 226.015 C 183.707 226.231,186.220 226.676,187.479 227.004 C 190.117 227.691,206.754 227.821,210.200 227.181 C 211.300 226.977,214.382 226.549,217.049 226.230 C 219.716 225.911,222.866 225.364,224.049 225.015 C 229.979 223.267,233.115 222.254,234.233 221.727 C 234.912 221.407,236.082 220.995,236.833 220.811 C 238.238 220.466,241.344 219.267,244.244 217.948 C 245.148 217.536,246.084 217.200,246.324 217.200 C 246.564 217.200,246.904 216.975,247.080 216.700 C 247.256 216.425,248.030 215.886,248.800 215.502 C 250.333 214.739,250.516 214.629,254.600 212.042 C 258.996 209.258,260.584 208.219,260.800 207.988 C 260.910 207.870,261.958 207.080,263.129 206.231 C 269.136 201.880,280.029 190.961,283.711 185.600 C 286.111 182.106,290.306 175.641,290.719 174.800 C 290.989 174.250,291.763 172.810,292.439 171.600 C 293.115 170.390,293.842 168.815,294.053 168.100 C 294.265 167.385,294.595 166.800,294.787 166.800 C 294.979 166.800,295.260 166.215,295.412 165.500 C 295.563 164.785,295.999 163.570,296.380 162.800 C 297.243 161.057,298.295 158.077,299.064 155.200 C 299.388 153.990,299.911 152.433,300.226 151.740 C 300.542 151.046,300.800 150.056,300.800 149.538 C 300.800 149.021,301.158 147.347,301.594 145.819 C 302.031 144.291,302.577 141.142,302.806 138.821 C 303.036 136.499,303.412 133.610,303.642 132.400 C 304.575 127.497,303.326 109.298,301.625 103.000 C 301.209 101.460,300.753 99.349,300.611 98.309 C 300.470 97.269,300.205 96.326,300.022 96.214 C 299.840 96.101,299.576 95.332,299.437 94.504 C 299.167 92.903,297.608 88.476,296.356 85.756 C 295.940 84.852,295.600 83.898,295.600 83.635 C 295.600 83.183,294.908 81.683,293.461 79.000 C 293.105 78.340,292.547 77.234,292.220 76.543 C 291.329 74.659,288.880 70.478,287.246 68.051 C 286.451 66.869,285.530 65.501,285.200 65.011 C 284.870 64.520,284.250 63.597,283.822 62.960 C 280.734 58.354,266.075 43.573,262.877 41.839 C 262.505 41.637,261.730 41.096,261.156 40.636 C 260.581 40.176,259.771 39.573,259.356 39.296 C 258.940 39.019,257.345 37.894,255.811 36.796 C 254.277 35.698,252.895 34.800,252.740 34.800 C 252.584 34.800,252.219 34.570,251.929 34.289 C 251.638 34.007,249.420 32.817,247.000 31.643 C 244.580 30.469,241.934 29.170,241.121 28.755 C 240.307 28.340,239.407 27.999,239.121 27.998 C 238.834 27.996,238.060 27.714,237.401 27.370 C 236.741 27.026,235.211 26.498,234.001 26.196 C 232.790 25.894,230.990 25.383,230.000 25.060 C 224.163 23.153,222.884 22.800,221.800 22.799 C 221.140 22.798,218.800 22.422,216.600 21.964 C 210.473 20.687,190.979 20.460,185.800 21.606 M241.840 51.895 C 243.402 52.568,245.279 53.427,246.012 53.806 C 247.931 54.798,253.334 60.354,253.981 62.000 C 254.284 62.770,254.750 63.670,255.016 64.000 C 257.706 67.330,257.800 79.771,255.168 84.000 C 254.962 84.330,254.580 85.050,254.319 85.600 C 252.808 88.779,249.962 90.262,248.453 88.656 L 247.566 87.712 248.345 84.900 C 248.774 83.354,249.301 81.754,249.517 81.344 C 251.164 78.218,250.127 71.021,247.450 67.000 C 246.865 66.120,246.164 65.063,245.893 64.651 C 242.293 59.179,230.713 56.904,224.554 60.461 C 221.246 62.370,215.600 68.164,215.600 69.648 C 215.600 70.035,214.296 73.207,213.646 74.400 C 213.123 75.361,210.975 75.375,210.024 74.424 C 207.716 72.116,211.540 61.502,216.375 56.791 C 218.480 54.741,221.873 52.357,223.193 52.002 C 224.040 51.774,225.243 51.313,225.867 50.977 C 228.054 49.800,238.345 50.391,241.840 51.895 M216.200 87.665 C 216.860 88.005,218.547 88.503,219.949 88.772 C 222.834 89.324,223.959 89.758,230.600 92.877 C 232.731 93.879,236.468 96.003,236.800 96.402 C 236.910 96.534,237.630 97.029,238.400 97.503 C 239.170 97.976,240.334 98.867,240.986 99.482 C 241.639 100.097,242.831 101.152,243.636 101.827 C 245.262 103.189,249.572 108.416,251.366 111.200 C 252.003 112.190,252.857 113.488,253.263 114.084 C 253.668 114.680,254.000 115.403,254.000 115.690 C 254.000 115.977,254.347 116.860,254.772 117.652 C 255.196 118.444,255.667 119.748,255.817 120.550 C 255.968 121.352,256.235 122.098,256.411 122.207 C 256.586 122.315,256.857 123.168,257.012 124.102 C 257.445 126.719,257.887 127.323,259.182 127.064 C 260.487 126.803,262.795 127.904,264.657 129.677 C 269.412 134.204,266.536 143.671,260.113 144.634 C 258.554 144.868,258.265 145.075,257.725 146.350 C 257.388 147.147,256.862 148.340,256.557 149.000 C 256.252 149.660,255.881 150.830,255.733 151.600 C 255.442 153.107,254.256 155.524,252.394 158.400 C 251.753 159.390,250.930 160.740,250.565 161.400 C 250.199 162.060,249.300 163.341,248.566 164.248 C 247.087 166.075,246.196 168.196,245.392 171.800 C 245.098 173.120,244.579 175.010,244.239 176.000 C 242.947 179.762,242.333 181.865,241.964 183.800 C 241.754 184.900,241.337 186.250,241.037 186.800 C 240.736 187.350,240.367 188.547,240.217 189.460 C 239.380 194.536,235.790 196.600,227.800 196.600 C 219.204 196.600,217.164 195.264,214.865 188.128 L 213.728 184.600 204.536 184.532 C 199.479 184.495,195.176 184.585,194.971 184.732 C 194.381 185.158,193.200 187.942,193.200 188.908 C 193.200 190.436,191.159 193.899,189.447 195.276 L 187.801 196.600 180.600 196.723 L 173.400 196.845 171.519 195.597 C 169.392 194.186,167.498 191.401,166.878 188.771 C 166.648 187.797,166.184 186.280,165.847 185.400 C 165.511 184.520,165.227 183.386,165.218 182.880 C 165.208 182.374,164.930 181.438,164.600 180.800 C 164.270 180.162,163.797 178.692,163.548 177.533 C 162.868 174.363,161.761 172.499,160.378 172.195 C 159.735 172.054,159.114 171.784,158.997 171.595 C 158.880 171.405,158.293 170.995,157.692 170.682 C 152.938 168.209,152.080 167.714,148.202 165.208 C 141.449 160.843,136.959 157.041,135.713 154.632 C 135.374 153.976,134.869 153.212,134.592 152.935 C 132.469 150.812,132.687 128.079,134.856 125.385 C 137.869 121.641,140.880 120.011,144.800 120.002 C 147.616 119.996,148.342 119.548,151.400 115.931 C 154.584 112.166,155.158 110.797,154.221 109.200 C 153.898 108.650,153.461 107.820,153.249 107.357 C 153.036 106.893,152.216 105.813,151.426 104.957 C 147.165 100.340,149.358 91.632,155.050 90.564 C 158.716 89.876,166.497 90.590,170.498 91.982 C 173.726 93.104,174.551 93.259,175.298 92.880 C 175.794 92.628,176.920 92.166,177.800 91.853 C 178.680 91.541,180.030 91.059,180.800 90.783 C 181.570 90.508,182.830 89.968,183.600 89.583 C 184.370 89.199,185.990 88.753,187.200 88.593 C 188.410 88.432,189.850 88.116,190.400 87.891 C 192.541 87.015,194.958 86.857,204.800 86.950 C 213.086 87.027,215.225 87.161,216.200 87.665 M196.200 94.011 C 194.880 94.215,193.410 94.555,192.933 94.767 C 192.456 94.979,190.927 95.359,189.535 95.612 C 188.143 95.864,186.553 96.317,186.002 96.617 C 185.451 96.918,183.650 97.738,182.000 98.439 C 180.350 99.141,178.601 99.975,178.114 100.294 C 176.392 101.420,172.674 101.426,170.313 100.307 C 167.222 98.841,165.048 98.335,160.898 98.117 L 157.195 97.923 157.966 99.720 C 158.389 100.709,159.374 102.425,160.155 103.535 C 160.935 104.645,161.684 106.059,161.821 106.677 C 161.957 107.295,162.323 108.479,162.634 109.308 C 163.499 111.614,163.326 112.827,161.800 115.144 C 161.030 116.313,160.399 117.389,160.398 117.535 C 160.395 117.878,156.663 122.535,154.600 124.768 C 151.862 127.734,150.464 128.400,146.982 128.400 C 141.454 128.400,141.196 128.887,141.213 139.280 C 141.224 146.467,141.287 147.127,142.127 148.840 C 143.374 151.383,145.732 153.475,152.356 157.920 C 153.810 158.896,155.360 159.866,155.800 160.075 C 156.240 160.284,157.500 160.977,158.600 161.614 C 159.700 162.251,162.095 163.526,163.923 164.447 C 167.757 166.380,169.765 168.495,170.597 171.478 C 170.891 172.535,171.307 173.940,171.521 174.600 C 173.382 180.349,173.994 182.412,174.228 183.728 C 174.377 184.569,174.928 186.144,175.451 187.228 L 176.402 189.200 180.174 189.200 L 183.946 189.200 184.846 187.935 C 185.341 187.240,185.883 185.935,186.049 185.035 C 187.644 176.428,189.620 175.055,198.432 176.433 C 204.559 177.391,204.095 177.408,215.580 175.816 C 217.658 175.528,220.770 178.618,220.792 180.993 C 220.802 181.953,222.782 187.999,223.317 188.700 C 223.582 189.048,225.063 189.200,228.175 189.200 L 232.653 189.200 233.482 187.100 C 233.938 185.945,234.885 183.110,235.587 180.800 C 236.288 178.490,237.107 176.033,237.406 175.340 C 237.704 174.647,238.070 173.387,238.219 172.540 C 238.368 171.693,238.719 170.633,238.999 170.184 C 239.279 169.735,239.730 168.302,240.000 167.000 C 240.548 164.359,241.007 163.512,243.486 160.557 C 244.429 159.433,245.200 158.336,245.200 158.119 C 245.200 157.902,245.650 157.201,246.200 156.562 C 246.749 155.923,247.199 155.190,247.200 154.933 C 247.200 154.677,247.335 154.407,247.500 154.333 C 248.155 154.042,250.400 150.325,250.400 149.532 C 250.400 149.068,250.743 147.948,251.162 147.044 C 251.581 146.140,252.209 144.590,252.557 143.600 C 253.387 141.243,254.928 139.601,256.316 139.596 C 262.122 139.572,264.222 135.525,260.372 131.778 C 258.917 130.362,258.543 130.200,256.726 130.200 C 255.328 130.200,254.606 130.014,254.396 129.600 C 253.475 127.789,252.388 124.810,252.162 123.480 C 252.020 122.645,251.679 121.736,251.405 121.462 C 251.130 121.187,250.769 120.531,250.601 120.003 C 250.255 118.913,248.089 115.268,247.314 114.471 C 247.031 114.181,246.800 113.813,246.800 113.654 C 246.800 113.495,246.125 112.619,245.300 111.707 C 244.475 110.795,243.260 109.403,242.600 108.615 C 241.940 107.826,240.770 106.758,240.000 106.241 C 239.230 105.725,238.060 104.788,237.400 104.161 C 235.950 102.782,228.057 98.203,226.043 97.573 C 225.249 97.324,223.868 96.778,222.974 96.360 C 222.079 95.942,220.909 95.598,220.374 95.595 C 219.838 95.592,218.230 95.215,216.800 94.758 C 213.823 93.806,200.639 93.328,196.200 94.011 M205.609 108.278 C 206.264 109.311,206.800 110.675,206.800 111.309 C 206.800 112.462,207.457 113.270,210.376 115.709 C 212.121 117.167,214.143 120.252,213.851 121.011 C 213.241 122.600,210.527 122.653,208.753 121.110 C 204.654 117.545,197.943 118.780,196.168 123.428 C 194.720 127.219,197.539 130.090,204.800 132.221 C 208.052 133.175,211.452 134.588,212.125 135.264 C 212.488 135.630,212.924 135.990,213.093 136.064 C 213.648 136.310,215.479 138.979,215.791 140.000 C 215.960 140.550,216.286 141.235,216.516 141.522 C 218.917 144.518,214.491 156.800,211.012 156.800 C 210.729 156.800,210.283 157.058,210.021 157.374 C 209.759 157.690,209.006 158.067,208.348 158.211 C 207.555 158.386,207.016 158.831,206.749 159.535 C 205.278 163.404,201.971 164.499,199.606 161.900 C 198.956 161.185,198.418 160.214,198.412 159.741 C 198.400 158.919,197.442 157.926,194.293 155.474 C 192.714 154.245,190.985 151.138,191.350 150.186 C 191.946 148.634,195.206 148.781,196.400 150.413 C 199.073 154.066,208.180 151.910,209.022 147.425 C 209.785 143.358,207.932 141.548,200.800 139.391 C 198.277 138.628,194.783 137.125,193.611 136.298 C 193.067 135.914,192.437 135.593,192.211 135.585 C 191.729 135.567,189.600 132.596,189.600 131.942 C 189.600 131.696,189.218 130.876,188.751 130.121 C 187.289 127.756,187.499 122.464,189.172 119.506 C 190.741 116.732,195.088 113.200,196.933 113.200 C 197.700 113.200,198.400 112.010,198.400 110.705 C 198.400 106.631,203.480 104.921,205.609 108.278 M82.676 267.915 C 83.343 268.339,85.061 270.932,85.416 272.051 C 85.579 272.564,86.009 273.438,86.372 273.992 C 87.512 275.734,87.986 276.552,88.808 278.200 C 89.247 279.080,90.021 280.520,90.527 281.400 C 91.034 282.280,92.122 284.260,92.946 285.800 C 93.769 287.340,94.914 289.093,95.492 289.696 L 96.541 290.791 97.523 289.096 C 98.064 288.163,99.181 286.140,100.007 284.600 C 100.833 283.060,101.978 280.990,102.552 280.000 C 103.125 279.010,103.955 277.480,104.396 276.600 C 104.838 275.720,105.740 274.100,106.401 273.000 C 107.062 271.900,107.802 270.500,108.045 269.888 C 108.833 267.905,110.076 267.600,117.361 267.600 C 123.387 267.600,126.046 267.959,125.981 268.764 C 125.970 268.894,125.618 269.630,125.199 270.400 C 124.780 271.170,124.061 272.520,123.601 273.400 C 123.142 274.280,122.334 275.720,121.805 276.600 C 121.277 277.480,120.473 278.920,120.018 279.800 C 118.467 282.803,115.548 288.194,112.655 293.400 C 111.066 296.260,109.546 299.050,109.278 299.600 C 109.009 300.150,108.373 301.320,107.863 302.200 C 107.353 303.080,106.320 304.880,105.568 306.200 L 104.200 308.600 104.000 325.915 C 103.829 340.719,103.713 343.286,103.200 343.614 C 102.860 343.832,99.657 343.955,95.818 343.899 L 89.035 343.800 88.758 342.800 C 88.605 342.250,88.462 334.411,88.440 325.380 C 88.418 316.349,88.241 308.789,88.047 308.580 C 87.853 308.371,86.658 306.220,85.392 303.800 C 84.126 301.380,82.866 299.130,82.592 298.800 C 82.318 298.470,81.962 297.750,81.800 297.200 C 81.638 296.650,81.264 295.923,80.968 295.585 C 80.672 295.247,80.141 294.347,79.788 293.585 C 79.434 292.823,78.717 291.480,78.195 290.600 C 77.672 289.720,76.883 288.280,76.440 287.400 C 75.997 286.520,74.832 284.360,73.851 282.600 C 72.869 280.840,71.696 278.680,71.243 277.800 C 70.790 276.920,70.243 275.930,70.026 275.600 C 69.088 274.173,66.400 269.095,66.400 268.751 C 66.400 267.746,81.213 266.985,82.676 267.915 M178.600 268.745 C 179.920 269.181,181.675 269.650,182.500 269.787 C 183.325 269.924,184.000 270.190,184.000 270.379 C 184.000 270.568,184.495 270.921,185.100 271.164 C 192.402 274.100,205.200 288.688,205.200 294.074 C 205.200 294.472,205.544 295.833,205.964 297.098 C 208.473 304.662,205.637 322.115,201.202 326.400 C 201.089 326.510,200.463 327.320,199.813 328.200 C 196.988 332.023,188.891 339.168,187.354 339.193 C 187.109 339.197,186.479 339.521,185.954 339.912 C 184.800 340.774,181.125 342.240,179.200 342.607 C 178.430 342.753,176.990 343.149,176.000 343.487 C 173.452 344.357,164.181 344.369,161.200 343.507 C 159.990 343.157,158.209 342.745,157.243 342.591 C 154.151 342.097,150.460 340.094,145.685 336.315 C 143.819 334.839,142.173 333.579,142.027 333.515 C 141.770 333.403,138.316 329.242,136.500 326.856 C 136.005 326.206,135.600 325.490,135.600 325.265 C 135.600 325.041,135.364 324.619,135.074 324.329 C 134.175 323.423,132.399 319.305,131.999 317.194 C 131.789 316.085,131.400 314.778,131.136 314.289 C 130.487 313.088,130.214 303.271,130.739 300.000 C 132.794 287.195,140.017 277.517,152.000 271.515 C 154.090 270.468,156.121 269.609,156.513 269.606 C 156.905 269.603,157.895 269.312,158.713 268.960 C 162.370 267.387,174.099 267.260,178.600 268.745 M227.520 268.080 C 227.883 268.443,228.000 274.477,228.000 292.786 C 228.000 316.248,228.025 317.059,228.800 318.504 C 229.240 319.325,229.600 320.256,229.600 320.572 C 229.600 321.449,234.346 326.072,236.600 327.390 C 239.065 328.831,245.437 329.120,247.219 327.872 C 247.746 327.502,248.459 327.200,248.802 327.200 C 250.016 327.200,255.600 323.022,255.600 322.113 C 255.600 321.976,255.892 321.540,256.249 321.146 C 257.971 319.243,258.129 317.003,258.294 292.153 L 258.451 268.505 259.444 268.053 C 260.947 267.368,271.996 267.471,272.929 268.178 C 273.799 268.838,273.757 318.012,272.884 320.800 C 271.781 324.320,271.018 326.277,270.388 327.200 C 270.012 327.750,269.579 328.605,269.426 329.100 C 269.272 329.595,268.990 330.000,268.800 330.000 C 268.610 330.000,268.337 330.367,268.195 330.815 C 267.829 331.969,260.981 338.703,259.463 339.402 C 258.768 339.722,257.930 340.163,257.600 340.382 C 247.335 347.197,228.930 343.774,219.727 333.339 C 218.667 332.137,217.492 330.579,217.115 329.877 C 216.484 328.700,216.123 327.936,214.618 324.600 C 212.498 319.901,212.362 317.836,212.485 292.218 L 212.600 268.236 213.600 267.958 C 215.419 267.452,226.993 267.553,227.520 268.080 M314.187 269.009 C 316.159 269.618,318.017 270.360,318.315 270.658 C 318.613 270.956,319.091 271.200,319.377 271.200 C 320.174 271.200,325.625 275.697,327.200 277.654 C 328.947 279.825,330.400 281.945,330.400 282.324 C 330.400 282.482,330.763 283.290,331.207 284.118 C 333.139 287.722,333.121 299.650,331.179 303.680 C 328.617 308.997,328.112 309.758,325.234 312.647 C 323.425 314.463,322.685 314.960,319.668 316.382 C 317.765 317.280,317.590 318.744,319.165 320.600 C 319.538 321.040,320.239 322.030,320.723 322.800 C 321.889 324.658,325.888 330.841,326.413 331.600 C 326.642 331.930,327.048 332.589,327.315 333.065 C 327.582 333.540,328.385 334.764,329.100 335.785 C 329.815 336.805,330.400 337.789,330.400 337.971 C 330.400 338.153,330.661 338.519,330.981 338.784 C 331.774 339.442,333.628 343.231,333.365 343.656 C 333.007 344.235,316.103 344.087,315.622 343.500 C 313.819 341.300,313.200 340.432,313.200 340.104 C 313.200 339.895,312.840 339.398,312.400 339.000 C 311.960 338.602,311.600 338.048,311.600 337.769 C 311.600 337.490,311.150 336.727,310.600 336.073 C 310.050 335.419,309.600 334.787,309.600 334.667 C 309.600 334.548,308.430 332.724,307.000 330.615 C 305.570 328.506,304.400 326.633,304.400 326.452 C 304.400 326.272,304.040 325.798,303.600 325.400 C 303.160 325.002,302.800 324.496,302.800 324.276 C 302.800 324.056,302.350 323.286,301.800 322.564 C 301.250 321.843,300.800 321.089,300.800 320.889 C 300.800 320.688,300.440 320.198,300.000 319.800 C 299.560 319.402,299.200 318.867,299.200 318.612 C 299.200 318.213,296.538 315.550,296.323 315.734 C 296.281 315.770,296.146 322.100,296.023 329.800 L 295.800 343.800 289.002 343.910 C 282.962 344.008,282.148 343.944,281.702 343.334 C 280.795 342.093,280.988 268.571,281.900 268.006 C 283.602 266.950,310.194 267.776,314.187 269.009 M164.400 283.251 C 157.492 284.186,150.353 290.111,147.352 297.402 C 145.158 302.732,145.684 311.790,148.455 316.400 C 148.654 316.730,149.072 317.554,149.385 318.232 C 150.029 319.626,154.807 324.527,156.370 325.396 C 163.949 329.610,174.780 329.800,179.204 325.797 C 179.566 325.469,180.029 325.197,180.231 325.193 C 180.903 325.179,184.159 322.783,185.511 321.307 C 188.197 318.374,189.396 316.218,190.907 311.600 C 192.629 306.341,190.375 295.500,186.827 291.977 C 186.482 291.635,185.735 290.801,185.166 290.125 C 180.546 284.632,172.898 282.100,164.400 283.251 M297.200 283.536 L 296.200 283.836 296.093 293.591 C 296.021 300.104,296.127 303.487,296.412 303.773 C 297.349 304.712,308.629 304.570,310.498 303.596 C 318.882 299.226,319.327 288.416,311.282 284.542 C 308.903 283.397,299.827 282.748,297.200 283.536 M233.800 358.146 C 235.120 358.430,236.560 358.858,237.000 359.096 C 237.440 359.334,238.880 360.034,240.200 360.652 C 242.655 361.800,244.827 363.421,246.137 365.084 L 246.873 366.019 243.737 369.016 C 240.142 372.451,239.309 372.817,237.699 371.670 C 233.025 368.342,225.832 367.597,220.800 369.920 C 209.228 375.262,208.179 391.835,218.978 398.705 C 222.206 400.758,229.278 401.823,231.785 400.634 C 232.520 400.285,233.348 400.000,233.625 400.000 C 235.451 400.000,241.334 394.889,241.867 392.838 C 242.400 390.790,241.859 390.609,234.843 390.490 L 228.373 390.380 227.986 389.364 C 227.461 387.984,227.497 382.015,228.039 380.460 L 228.478 379.200 240.606 379.200 C 253.852 379.200,253.768 379.190,254.615 380.829 C 256.171 383.839,253.654 397.046,251.189 398.800 C 251.034 398.910,250.793 399.369,250.653 399.819 C 249.971 402.008,242.699 408.335,239.000 409.957 C 233.724 412.270,224.390 412.926,220.694 411.243 C 219.676 410.779,218.586 410.400,218.270 410.400 C 215.671 410.400,205.200 402.498,205.200 400.537 C 205.200 400.242,205.036 400.000,204.836 400.000 C 204.635 400.000,204.080 399.191,203.601 398.202 C 203.122 397.213,202.582 396.312,202.400 396.200 C 202.218 396.088,201.943 395.232,201.788 394.298 C 201.632 393.364,201.228 392.060,200.888 391.400 C 199.982 389.638,200.015 380.393,200.935 378.251 C 201.301 377.399,201.606 376.409,201.613 376.051 C 201.672 372.974,211.045 361.600,213.522 361.600 C 213.731 361.600,214.107 361.353,214.357 361.051 C 216.334 358.670,228.086 356.914,233.800 358.146 M85.174 359.117 C 85.830 359.603,86.538 360.000,86.747 360.000 C 87.221 360.000,90.800 363.948,90.800 364.472 C 90.800 364.684,91.057 365.114,91.372 365.429 C 92.269 366.326,92.877 370.066,92.569 372.791 C 92.287 375.284,93.173 377.200,94.609 377.200 C 94.867 377.200,95.510 377.563,96.039 378.006 C 106.786 387.019,106.193 400.737,94.675 409.517 C 91.435 411.987,67.593 413.429,66.414 411.226 C 65.765 410.013,65.848 359.118,66.500 358.442 C 67.469 357.438,83.696 358.025,85.174 359.117 M118.386 358.774 C 118.652 359.271,118.800 365.385,118.800 375.874 C 118.801 395.735,118.998 396.538,124.792 400.195 C 126.452 401.243,132.044 401.699,132.581 400.831 C 132.706 400.628,133.345 400.344,133.999 400.200 C 135.605 399.847,138.498 396.959,139.651 394.558 C 140.586 392.612,140.593 392.500,140.716 375.611 C 140.809 362.958,140.963 358.544,141.320 358.317 C 142.246 357.729,150.658 357.947,151.177 358.572 C 151.533 359.001,151.614 363.681,151.501 377.272 L 151.351 395.400 150.254 397.913 C 147.649 403.883,144.139 407.631,138.520 410.440 L 135.000 412.200 130.578 412.151 C 120.265 412.037,112.411 406.823,109.032 397.846 L 108.000 395.105 108.000 376.819 C 108.000 366.762,108.120 358.413,108.267 358.267 C 108.993 357.540,117.966 357.990,118.386 358.774 M178.478 359.123 C 179.511 359.605,180.611 360.000,180.922 360.000 C 182.948 360.000,188.962 364.236,191.895 367.729 C 198.116 375.137,198.994 389.683,193.783 399.000 C 190.948 404.071,184.053 409.538,179.400 410.405 C 178.520 410.569,176.630 411.031,175.200 411.431 C 172.491 412.190,159.065 412.555,157.500 411.913 C 156.758 411.608,156.366 358.977,157.100 358.226 C 157.878 357.431,176.531 358.213,178.478 359.123 M291.226 358.414 C 292.180 358.925,292.423 367.679,291.500 368.276 C 291.225 368.454,286.320 368.690,280.600 368.800 L 270.200 369.000 270.200 374.000 L 270.200 379.000 277.640 379.200 C 286.888 379.449,286.400 379.141,286.400 384.717 C 286.400 390.640,286.737 390.400,278.427 390.400 C 269.706 390.400,269.998 390.209,270.006 395.923 C 270.014 401.635,268.957 401.117,280.919 401.269 C 293.061 401.423,292.039 400.873,291.901 407.183 C 291.802 411.693,291.784 411.770,290.800 412.043 C 288.925 412.563,260.210 412.450,259.680 411.920 C 259.157 411.397,258.948 358.786,259.467 358.267 C 259.921 357.813,290.367 357.954,291.226 358.414 M333.367 358.243 C 334.310 358.605,334.310 368.195,333.367 368.557 C 333.019 368.691,330.307 368.800,327.341 368.800 C 319.504 368.800,320.400 365.987,320.400 390.600 C 320.400 410.925,320.376 411.585,319.626 411.986 C 318.647 412.510,311.990 412.528,310.630 412.011 L 309.607 411.622 309.504 390.311 L 309.400 369.000 302.800 368.765 C 299.170 368.636,296.155 368.501,296.100 368.465 C 295.538 368.100,296.095 358.784,296.700 358.432 C 297.457 357.991,332.243 357.811,333.367 358.243 M76.967 369.342 C 76.852 369.640,76.813 371.035,76.879 372.442 L 77.000 375.000 78.506 375.125 C 81.335 375.358,82.966 372.929,81.820 370.187 C 81.186 368.670,77.473 368.023,76.967 369.342 M168.300 369.232 C 167.450 369.727,167.213 397.571,168.039 399.940 C 169.124 403.051,177.762 400.767,182.122 396.217 C 185.894 392.281,187.725 382.734,185.501 378.600 C 185.146 377.940,184.584 376.819,184.251 376.108 C 181.938 371.158,172.200 366.960,168.300 369.232 M77.067 386.267 C 76.733 386.600,76.712 399.304,77.043 400.167 C 77.384 401.058,85.078 401.066,87.682 400.178 C 93.824 398.085,94.367 388.619,88.474 386.356 C 87.405 385.945,77.466 385.868,77.067 386.267 M94.081 433.229 C 96.556 434.386,97.808 437.526,95.989 438.013 C 94.986 438.281,94.316 438.092,92.416 437.005 C 91.183 436.300,90.400 436.842,90.400 438.400 C 90.400 439.699,90.761 440.025,93.331 441.038 C 94.394 441.457,95.457 442.156,95.695 442.592 C 95.932 443.027,96.368 443.625,96.663 443.920 C 99.920 447.177,93.576 453.141,89.234 450.904 C 85.248 448.850,85.824 444.875,89.826 446.813 C 91.706 447.723,93.200 447.333,93.200 445.933 C 93.200 445.138,91.378 443.600,90.437 443.600 C 89.340 443.600,87.032 441.396,86.454 439.798 C 84.909 435.525,89.863 431.258,94.081 433.229 M120.427 434.029 C 121.058 434.704,121.689 435.868,121.829 436.614 C 121.969 437.361,122.323 438.170,122.616 438.413 C 122.909 438.656,123.264 439.381,123.405 440.023 C 124.038 442.904,124.998 442.034,127.623 436.200 C 128.779 433.631,129.510 432.800,130.613 432.800 C 132.420 432.800,132.884 435.112,131.416 436.800 C 131.129 437.130,130.763 437.850,130.603 438.400 C 130.442 438.950,129.661 440.750,128.867 442.400 C 128.073 444.050,127.236 445.940,127.008 446.600 C 125.778 450.156,124.197 451.231,123.481 449.000 C 123.269 448.340,122.870 447.530,122.595 447.200 C 122.320 446.870,121.966 446.150,121.809 445.600 C 121.652 445.050,120.832 443.160,119.986 441.400 C 119.141 439.640,118.330 437.712,118.185 437.116 C 118.040 436.520,117.669 435.823,117.361 435.567 C 116.510 434.862,116.689 433.619,117.700 433.212 C 119.060 432.666,119.190 432.704,120.427 434.029 M144.599 433.200 C 145.482 433.535,145.631 433.809,145.525 434.900 L 145.400 436.200 142.200 436.411 C 136.815 436.767,135.923 439.729,141.027 440.304 C 144.963 440.748,144.788 443.526,140.800 443.910 C 136.624 444.311,137.314 447.600,141.573 447.600 C 144.938 447.600,147.002 449.621,144.826 450.786 C 143.686 451.396,135.401 451.324,134.885 450.700 C 134.640 450.404,134.416 446.805,134.336 441.885 L 134.200 433.570 135.400 433.221 C 137.079 432.733,143.333 432.718,144.599 433.200 M164.567 433.043 C 164.994 433.207,165.200 433.792,165.200 434.843 L 165.200 436.400 162.374 436.400 C 159.093 436.400,158.000 436.846,158.000 438.186 C 158.000 439.691,159.020 440.400,161.185 440.400 C 162.891 440.400,163.141 440.511,163.356 441.368 C 163.841 443.298,162.952 443.983,159.950 443.995 C 158.316 444.001,158.000 444.710,158.000 448.370 C 158.000 450.410,157.497 451.200,156.200 451.200 C 154.507 451.200,154.400 450.652,154.400 441.940 C 154.400 434.457,154.469 433.600,155.100 433.232 C 155.852 432.794,163.519 432.641,164.567 433.043 M180.223 434.080 C 187.388 438.624,186.226 448.154,178.159 451.014 C 174.518 452.306,173.211 452.031,169.800 449.259 C 161.158 442.235,170.843 428.132,180.223 434.080 M196.512 434.200 C 199.250 436.373,199.678 441.146,197.358 443.622 C 196.124 444.938,196.146 446.191,197.436 448.051 C 198.799 450.018,198.491 451.200,196.615 451.200 C 195.193 451.200,192.800 449.385,192.800 448.307 C 192.800 447.993,192.350 447.494,191.800 447.200 C 191.250 446.906,190.800 446.505,190.800 446.309 C 190.800 446.113,190.620 446.064,190.400 446.200 C 190.180 446.336,190.000 447.168,190.000 448.050 C 190.000 451.170,187.564 452.595,186.441 450.131 C 185.797 448.716,185.776 434.767,186.416 433.570 C 187.197 432.110,194.449 432.563,196.512 434.200 M218.993 433.450 C 220.679 435.136,219.659 436.190,216.219 436.318 C 212.671 436.450,212.000 436.785,212.000 438.425 C 212.000 439.823,212.469 440.131,215.000 440.393 C 216.971 440.597,217.002 440.621,217.122 442.068 L 217.245 443.537 214.922 443.823 C 212.136 444.165,212.014 444.318,212.006 447.471 C 211.998 450.947,210.153 452.496,208.623 450.311 C 207.492 448.696,207.720 434.242,208.889 433.423 C 210.196 432.507,218.072 432.529,218.993 433.450 M229.560 433.380 C 233.432 435.382,234.458 440.206,231.684 443.365 C 230.109 445.159,230.493 447.841,232.525 449.250 C 233.320 449.801,232.364 451.200,231.192 451.200 C 228.966 451.200,228.088 450.465,226.078 446.920 C 225.151 445.285,224.400 446.037,224.400 448.600 C 224.400 451.057,222.743 452.183,221.280 450.720 C 220.761 450.201,220.560 433.574,221.067 433.067 C 221.599 432.534,228.411 432.785,229.560 433.380 M245.813 433.380 C 248.877 434.660,247.455 436.384,243.326 436.395 C 240.258 436.403,239.200 436.917,239.200 438.400 C 239.200 439.785,240.256 440.400,242.635 440.400 C 245.882 440.400,245.285 443.461,241.955 443.885 C 237.607 444.438,238.218 447.598,242.674 447.601 C 244.358 447.603,247.200 448.719,247.200 449.379 C 247.200 450.639,245.275 451.200,240.953 451.200 C 234.771 451.200,235.159 451.853,235.292 441.681 L 235.400 433.436 236.400 433.158 C 238.293 432.632,244.365 432.775,245.813 433.380 M258.780 433.376 C 260.205 435.093,259.172 436.193,256.018 436.319 C 250.827 436.527,250.034 440.400,255.182 440.400 C 256.962 440.400,257.122 440.482,257.316 441.496 C 257.672 443.355,257.023 444.000,254.800 444.000 C 252.474 444.000,251.582 444.965,252.350 446.651 C 252.745 447.518,253.024 447.600,255.577 447.600 C 258.663 447.600,259.523 448.258,259.026 450.237 C 258.748 451.348,249.928 451.768,248.880 450.720 C 248.016 449.856,248.219 433.745,249.100 433.232 C 250.241 432.567,258.207 432.686,258.780 433.376 M269.466 434.032 C 274.401 436.436,276.710 441.515,274.627 445.382 C 272.167 449.949,270.200 451.121,264.914 451.170 C 260.601 451.210,260.757 451.583,260.892 441.529 L 261.000 433.436 262.000 433.158 C 264.395 432.492,266.909 432.786,269.466 434.032 M289.823 434.080 C 296.997 438.629,295.843 448.148,287.771 451.010 C 283.884 452.389,281.791 451.766,278.334 448.204 C 271.244 440.898,281.226 428.628,289.823 434.080 M108.420 435.900 C 109.584 438.376,110.092 439.478,112.517 444.800 C 112.968 445.790,113.658 447.241,114.051 448.023 C 115.568 451.048,113.309 452.447,110.862 450.000 C 109.755 448.893,109.442 448.800,106.834 448.800 C 104.196 448.800,103.934 448.881,102.937 450.000 C 100.590 452.634,98.288 450.901,99.932 447.738 C 101.784 444.174,102.714 442.134,102.957 441.100 C 103.099 440.495,103.378 440.000,103.576 440.000 C 103.774 440.000,104.053 439.469,104.195 438.821 C 104.440 437.708,106.693 433.200,107.005 433.200 C 107.085 433.200,107.721 434.415,108.420 435.900 M298.170 435.600 C 299.701 437.491,300.095 438.004,302.005 440.600 C 303.470 442.592,304.899 444.036,305.270 443.902 C 305.577 443.791,308.839 439.675,310.319 437.531 C 310.824 436.799,311.454 435.898,311.719 435.529 C 311.983 435.160,312.650 434.800,313.200 434.729 L 314.200 434.600 314.309 442.159 C 314.404 448.770,314.334 449.810,313.747 450.459 C 312.516 451.819,310.400 450.841,310.400 448.912 C 310.400 446.497,308.836 445.642,307.818 447.500 C 306.121 450.601,305.053 451.020,303.581 449.161 C 300.580 445.371,299.600 445.048,299.600 447.850 C 299.600 450.925,296.756 453.002,296.245 450.300 C 295.418 445.927,295.476 436.322,296.346 433.633 C 296.413 433.427,296.398 433.411,298.170 435.600 M191.200 436.794 C 190.031 437.072,189.456 440.609,190.476 441.255 C 191.869 442.139,194.021 441.642,194.582 440.308 C 195.580 437.934,193.872 436.159,191.200 436.794 M224.877 436.739 C 224.524 436.966,224.394 437.781,224.477 439.238 L 224.600 441.400 226.064 441.522 C 227.627 441.652,229.214 440.485,229.187 439.225 C 229.152 437.609,226.183 435.896,224.877 436.739 M172.014 438.083 C 168.069 441.668,171.407 448.401,176.642 447.418 C 183.000 446.226,182.072 436.791,175.600 436.815 C 173.699 436.822,173.212 436.994,172.014 438.083 M264.974 437.324 C 264.863 437.613,264.824 439.908,264.886 442.424 L 265.000 447.000 266.927 446.973 C 269.826 446.933,271.795 444.025,271.018 440.930 C 270.354 438.282,265.677 435.492,264.974 437.324 M281.447 438.401 C 277.659 442.594,281.507 448.947,286.780 447.207 C 292.763 445.232,291.371 436.800,285.062 436.800 C 283.039 436.800,282.796 436.908,281.447 438.401 M106.358 443.333 C 105.801 444.555,106.353 445.346,107.464 444.920 C 108.155 444.655,108.145 443.951,107.435 442.980 C 106.891 442.236,106.852 442.249,106.358 443.333 " stroke="none" fill="#fbfbfb" fill-rule="evenodd"></path></g></svg>