<svg version="1.0" xmlns="http://www.w3.org/2000/svg" width="269.53591442108154" height="267.39226627349854" preserveAspectRatio="xMidYMid meet"><rect id="backgroundrect" width="100%" height="100%" x="0" y="0" fill="none" stroke="none" style="" class=""/>


<g class="currentLayer" style=""><title>Layer 1</title>





























<g class="selected"><g class=""><path d="M60.221038818359375,67.2219352722168 l0,60.03961181640625 l25.599586486816406,0 l25.599586486816406,0 l-3.381077766418457,8.80580997467041 c-1.9320443868637085,4.803169250488281 -4.508102893829346,8.80580997467041 -5.635128974914551,8.80580997467041 c-1.2880295515060425,0 -1.9320443868637085,1.440950870513916 -1.610036849975586,3.682429552078247 c0.4830110967159271,3.5223240852355957 0.4830110967159271,3.5223240852355957 37.030845642089844,4.002641201019287 l36.70884323120117,0.320211261510849 l0,-4.002641201019287 c0,-2.24147891998291 -0.805018424987793,-4.002641201019287 -1.610036849975586,-4.002641201019287 c-1.610036849975586,0 -8.05018424987793,-12.96855640411377 -8.05018424987793,-16.170669555664062 c0,-0.8005281686782837 10.948251724243164,-1.440950870513916 24.955570220947266,-1.440950870513916 l24.955570220947266,0 l0,-60.03961181640625 l0,-60.03961181640625 l-77.28176879882812,0 l-77.28176879882812,0 l0,60.03961181640625 zm144.9033203125,-13.608979225158691 l0,36.82429504394531 l-66.8165283203125,0 l-66.8165283203125,0 l0,-36.82429504394531 l0,-36.82429504394531 l66.8165283203125,0 l66.8165283203125,0 l0,36.82429504394531 zm0,53.6353874206543 l0,8.80580997467041 l-33.1667594909668,0 c-32.844749450683594,0 -33.1667594909668,0 -29.46367835998535,-3.0420069694519043 c3.220073699951172,-2.561690092086792 3.542081356048584,-3.682429552078247 2.254051446914673,-7.524965286254883 c-2.254051446914673,-6.084013938903809 -9.016205787658691,-7.204753875732422 -12.719291687011719,-1.9212677478790283 c-3.220073699951172,4.643063545227051 -3.220073699951172,5.443591594696045 0.6440147757530212,9.286127090454102 l3.220073699951172,3.2021126747131348 l-32.20073699951172,0 l-32.20073699951172,0 l0,-8.80580997467041 l0,-8.80580997467041 l66.8165283203125,0 l66.8165283203125,0 l0,8.80580997467041 zm-66.01150512695312,0.8005281686782837 c0,0.8005281686782837 -0.6440147757530212,1.6010563373565674 -1.610036849975586,1.6010563373565674 c-0.805018424987793,0 -1.610036849975586,-0.8005281686782837 -1.610036849975586,-1.6010563373565674 c0,-0.9606338739395142 0.805018424987793,-1.6010563373565674 1.610036849975586,-1.6010563373565674 c0.9660221934318542,0 1.610036849975586,0.640422523021698 1.610036849975586,1.6010563373565674 zm19.80345344543457,26.737642288208008 c1.4490331411361694,4.32285213470459 2.737062931060791,8.165387153625488 2.737062931060791,8.80580997467041 c0,0.8005281686782837 -10.948251724243164,1.280845046043396 -24.31155776977539,1.280845046043396 c-27.209623336791992,0 -25.438583374023438,1.120739459991455 -19.80345344543457,-12.328134536743164 l2.254051446914673,-5.2834858894348145 l18.193416595458984,0 l18.193416595458984,0 l2.737062931060791,7.524965286254883 z" class="" id="svg_31"/><path d="M154.40817260742188,28.316268920898438 c-0.4830110967159271,1.280845046043396 -0.6440147757530212,14.409507751464844 -0.4830110967159271,29.299335479736328 l0.4830110967159271,27.217958450317383 l10.465239524841309,0 l10.465239524841309,0 l0,-28.819015502929688 l0,-28.819015502929688 l-10.143232345581055,-0.4803169369697571 c-7.245166301727295,-0.320211261510849 -10.30423641204834,0.1601056307554245 -10.787247657775879,1.6010563373565674 z" class="" id="svg_32"/><path d="M127.03753662109375,44.486942291259766 c-0.4830110967159271,1.120739459991455 -0.6440147757530212,10.727078437805176 -0.4830110967159271,21.294050216674805 l0.4830110967159271,19.05257225036621 l10.465239524841309,0 l10.465239524841309,0 l0,-20.813732147216797 l0,-20.813732147216797 l-10.143232345581055,-0.4803169369697571 c-7.245166301727295,-0.320211261510849 -10.30423641204834,0.1601056307554245 -10.787247657775879,1.7611620426177979 z" class="" id="svg_33"/><path d="M99.9044189453125,57.21135330200195 c-1.4490331411361694,0.9606338739395142 -1.9320443868637085,4.963274955749512 -1.610036849975586,14.089296340942383 l0.4830110967159271,12.648345947265625 l10.465239524841309,0 l10.465239524841309,0 l0,-13.608979225158691 l0,-13.608979225158691 l-8.855202674865723,-0.4803169369697571 c-4.830110549926758,-0.1601056307554245 -9.8212251663208,0.320211261510849 -10.948251724243164,0.9606338739395142 z" class="" id="svg_35"/></g><g class="" id="svg_36"><path d="M60.221038818359375,67.2219352722168 l0,60.03961181640625 l25.599586486816406,0 l25.599586486816406,0 l-3.381077766418457,8.80580997467041 c-1.9320443868637085,4.803169250488281 -4.508102893829346,8.80580997467041 -5.635128974914551,8.80580997467041 c-1.2880295515060425,0 -1.9320443868637085,1.440950870513916 -1.610036849975586,3.682429552078247 c0.4830110967159271,3.5223240852355957 0.4830110967159271,3.5223240852355957 37.030845642089844,4.002641201019287 l36.70884323120117,0.320211261510849 l0,-4.002641201019287 c0,-2.24147891998291 -0.805018424987793,-4.002641201019287 -1.610036849975586,-4.002641201019287 c-1.610036849975586,0 -8.05018424987793,-12.96855640411377 -8.05018424987793,-16.170669555664062 c0,-0.8005281686782837 10.948251724243164,-1.440950870513916 24.955570220947266,-1.440950870513916 l24.955570220947266,0 l0,-60.03961181640625 l0,-60.03961181640625 l-77.28176879882812,0 l-77.28176879882812,0 l0,60.03961181640625 zm144.9033203125,-13.608979225158691 l0,36.82429504394531 l-66.8165283203125,0 l-66.8165283203125,0 l0,-36.82429504394531 l0,-36.82429504394531 l66.8165283203125,0 l66.8165283203125,0 l0,36.82429504394531 zm0,53.6353874206543 l0,8.80580997467041 l-33.1667594909668,0 c-32.844749450683594,0 -33.1667594909668,0 -29.46367835998535,-3.0420069694519043 c3.220073699951172,-2.561690092086792 3.542081356048584,-3.682429552078247 2.254051446914673,-7.524965286254883 c-2.254051446914673,-6.084013938903809 -9.016205787658691,-7.204753875732422 -12.719291687011719,-1.9212677478790283 c-3.220073699951172,4.643063545227051 -3.220073699951172,5.443591594696045 0.6440147757530212,9.286127090454102 l3.220073699951172,3.2021126747131348 l-32.20073699951172,0 l-32.20073699951172,0 l0,-8.80580997467041 l0,-8.80580997467041 l66.8165283203125,0 l66.8165283203125,0 l0,8.80580997467041 zm-66.01150512695312,0.8005281686782837 c0,0.8005281686782837 -0.6440147757530212,1.6010563373565674 -1.610036849975586,1.6010563373565674 c-0.805018424987793,0 -1.610036849975586,-0.8005281686782837 -1.610036849975586,-1.6010563373565674 c0,-0.9606338739395142 0.805018424987793,-1.6010563373565674 1.610036849975586,-1.6010563373565674 c0.9660221934318542,0 1.610036849975586,0.640422523021698 1.610036849975586,1.6010563373565674 zm19.80345344543457,26.737642288208008 c1.4490331411361694,4.32285213470459 2.737062931060791,8.165387153625488 2.737062931060791,8.80580997467041 c0,0.8005281686782837 -10.948251724243164,1.280845046043396 -24.31155776977539,1.280845046043396 c-27.209623336791992,0 -25.438583374023438,1.120739459991455 -19.80345344543457,-12.328134536743164 l2.254051446914673,-5.2834858894348145 l18.193416595458984,0 l18.193416595458984,0 l2.737062931060791,7.524965286254883 z" class="" id="svg_37"/><path d="M154.40817260742188,28.316268920898438 c-0.4830110967159271,1.280845046043396 -0.6440147757530212,14.409507751464844 -0.4830110967159271,29.299335479736328 l0.4830110967159271,27.217958450317383 l10.465239524841309,0 l10.465239524841309,0 l0,-28.819015502929688 l0,-28.819015502929688 l-10.143232345581055,-0.4803169369697571 c-7.245166301727295,-0.320211261510849 -10.30423641204834,0.1601056307554245 -10.787247657775879,1.6010563373565674 z" class="" id="svg_38"/><path d="M127.03753662109375,44.486942291259766 c-0.4830110967159271,1.120739459991455 -0.6440147757530212,10.727078437805176 -0.4830110967159271,21.294050216674805 l0.4830110967159271,19.05257225036621 l10.465239524841309,0 l10.465239524841309,0 l0,-20.813732147216797 l0,-20.813732147216797 l-10.143232345581055,-0.4803169369697571 c-7.245166301727295,-0.320211261510849 -10.30423641204834,0.1601056307554245 -10.787247657775879,1.7611620426177979 z" class="" id="svg_39"/><path d="M99.9044189453125,57.21135330200195 c-1.4490331411361694,0.9606338739395142 -1.9320443868637085,4.963274955749512 -1.610036849975586,14.089296340942383 l0.4830110967159271,12.648345947265625 l10.465239524841309,0 l10.465239524841309,0 l0,-13.608979225158691 l0,-13.608979225158691 l-8.855202674865723,-0.4803169369697571 c-4.830110549926758,-0.1601056307554245 -9.8212251663208,0.320211261510849 -10.948251724243164,0.9606338739395142 z" class="" id="svg_40"/></g><g class=""><path d="M6.4562530517578125,175.4758415222168 c0.37174108624458313,0.6362596750259399 2.880993604660034,3.9993467330932617 5.3902459144592285,7.544221878051758 c4.646763324737549,6.1808085441589355 4.739698886871338,6.5443854331970215 5.204375267028809,14.088606834411621 c0.4646763503551483,7.180644989013672 0.6505469083786011,7.726010322570801 2.6021876335144043,7.998693466186523 c1.9516408443450928,0.27268272638320923 2.0445759296417236,0.09089424461126328 2.0445759296417236,-7.08975076675415 l0,-7.362433910369873 l5.57611608505249,-7.726010322570801 c3.066863775253296,-4.181135177612305 5.57611608505249,-7.8169050216674805 5.57611608505249,-8.089588165283203 c0,-0.27268272638320923 -1.0222879648208618,-0.4544712007045746 -2.3233816623687744,-0.4544712007045746 c-1.8587054014205933,0 -3.159799337387085,1.2725193500518799 -6.5984039306640625,6.3625969886779785 l-4.367958068847656,6.3625969886779785 l-4.275022506713867,-6.1808085441589355 c-3.345669746398926,-4.817394733428955 -4.832634449005127,-6.1808085441589355 -6.970145225524902,-6.3625969886779785 c-1.9516408443450928,-0.27268272638320923 -2.4163172245025635,0 -1.8587054014205933,0.9089424014091492 z" id="svg_6" class=""/><path d="M118.35031127929688,189.8371238708496 l0,15.72470474243164 l7.899497985839844,-0.4544712007045746 c8.735916137695312,-0.5453654527664185 12.081584930419922,-1.9996733665466309 13.568550109863281,-5.999019622802734 c1.2081586122512817,-3.0904042720794678 0.37174108624458313,-6.1808085441589355 -2.5092523097991943,-8.998530387878418 c-2.2304465770721436,-2.181461811065674 -2.2304465770721436,-2.363250255584717 -0.7434821724891663,-3.9993467330932617 c2.2304465770721436,-2.4541444778442383 2.0445759296417236,-6.817068099975586 -0.4646763503551483,-9.271212577819824 c-1.672834873199463,-1.6360963582992554 -3.252734422683716,-2.0905675888061523 -9.851139068603516,-2.363250255584717 l-7.899497985839844,-0.27268272638320923 l0,15.633810043334961 zm14.312031745910645,-10.361944198608398 c3.6244757175445557,3.4539811611175537 1.0222879648208618,6.7261738777160645 -5.204375267028809,6.7261738777160645 l-4.460893154144287,0 l0,-4.090240955352783 l0,-4.090240955352783 l4.089151859283447,0 c2.5092523097991943,0 4.739698886871338,0.5453654527664185 5.57611608505249,1.4543079137802124 zm1.5798996686935425,12.725193977355957 c2.1375112533569336,1.9087791442871094 2.2304465770721436,4.726500511169434 0.18587054312229156,6.907962322235107 c-1.1152232885360718,1.1816251277923584 -2.788058042526245,1.6360963582992554 -6.505468845367432,1.6360963582992554 l-4.925569534301758,0 l0,-5.544548511505127 l0,-5.635443210601807 l4.739698886871338,0.5453654527664185 c2.6951229572296143,0.3635769784450531 5.57611608505249,1.2725193500518799 6.505468845367432,2.0905675888061523 z" id="svg_7" class=""/><path d="M187.12240600585938,179.29340744018555 l0,4.999183177947998 l-2.5092523097991943,-1.3634135723114014 c-5.669051170349121,-2.8177216053009033 -12.63919734954834,-0.4544712007045746 -15.427255630493164,5.362760066986084 c-1.9516408443450928,3.9084525108337402 -1.9516408443450928,6.089914321899414 -0.27880582213401794,10.180154800415039 c2.5092523097991943,5.726337432861328 9.944073677062988,8.36227035522461 15.613126754760742,5.544548511505127 c2.1375112533569336,-1.090730905532837 2.5092523097991943,-1.090730905532837 2.973928689956665,0 c0.27880582213401794,0.7271539568901062 1.3940290212631226,1.2725193500518799 2.4163172245025635,1.2725193500518799 c1.7657700777053833,0 1.8587054014205933,-0.5453654527664185 1.8587054014205933,-15.452020645141602 l0,-15.452020645141602 l-2.3233816623687744,0 c-2.2304465770721436,0 -2.3233816623687744,0.27268272638320923 -2.3233816623687744,4.908288955688477 zm-2.2304465770721436,8.089588165283203 c1.9516408443450928,1.7269905805587769 2.5092523097991943,2.908615827560425 2.5092523097991943,6.089914321899414 c0,3.1812984943389893 -0.5576116442680359,4.362923622131348 -2.5092523097991943,6.089914321899414 c-2.880993604660034,2.4541444778442383 -5.204375267028809,2.6359331607818604 -8.828850746154785,0.7271539568901062 c-2.973928689956665,-1.4543079137802124 -3.8103458881378174,-2.999509811401367 -3.8103458881378174,-7.180644989013672 c0,-6.7261738777160645 7.434821605682373,-10.089261054992676 12.63919734954834,-5.726337432861328 z" id="svg_8" class=""/><path d="M251.24777221679688,179.3842887878418 c0,1.4543079137802124 -0.5576116442680359,2.2723560333251953 -1.3940290212631226,2.2723560333251953 c-0.7434821724891663,0 -1.3940290212631226,0.8180481791496277 -1.3940290212631226,1.8178848028182983 c0,0.9998366832733154 0.6505469083786011,1.8178848028182983 1.3940290212631226,1.8178848028182983 c1.1152232885360718,0 1.3940290212631226,1.4543079137802124 1.3940290212631226,7.998693466186523 c0,10.452837944030762 2.1375112533569336,13.543242454528809 7.806563377380371,11.452674865722656 c2.4163172245025635,-0.9089424014091492 1.8587054014205933,-3.9993467330932617 -0.5576116442680359,-3.726663827896118 c-2.0445759296417236,0.18178848922252655 -2.1375112533569336,-0.09089424461126328 -2.4163172245025635,-7.8169050216674805 l-0.27880582213401794,-7.907798767089844 l2.4163172245025635,0 c1.672834873199463,0 2.3233816623687744,-0.4544712007045746 2.3233816623687744,-1.8178848028182983 c0,-1.3634135723114014 -0.6505469083786011,-1.8178848028182983 -2.3233816623687744,-1.8178848028182983 c-1.8587054014205933,0 -2.3233816623687744,-0.4544712007045746 -2.3233816623687744,-2.2723560333251953 c0,-1.8178848028182983 -0.4646763503551483,-2.2723560333251953 -2.3233816623687744,-2.2723560333251953 c-1.8587054014205933,0 -2.3233816623687744,0.4544712007045746 -2.3233816623687744,2.2723560333251953 z" id="svg_9" class=""/><path d="M42.51513671875,182.56559371948242 c-1.0222879648208618,0.3635769784450531 -3.066863775253296,1.9996733665466309 -4.367958068847656,3.6357696056365967 c-5.761987209320068,6.7261738777160645 -1.4869643449783325,17.633481979370117 7.341886520385742,18.815109252929688 c7.527757167816162,0.9998366832733154 13.661484718322754,-4.181135177612305 13.661484718322754,-11.54356861114502 c0,-8.453164100646973 -8.642980575561523,-14.088606834411621 -16.635412216186523,-10.907308578491211 zm9.944073677062988,5.362760066986084 c1.8587054014205933,1.8178848028182983 2.6951229572296143,3.544875383377075 2.6951229572296143,5.544548511505127 c0,3.544875383377075 -4.367958068847656,8.180481910705566 -7.806563377380371,8.180481910705566 c-1.3010938167572021,0 -3.4386050701141357,-0.9998366832733154 -4.925569534301758,-2.181461811065674 c-2.0445759296417236,-1.7269905805587769 -2.6021876335144043,-2.908615827560425 -2.6021876335144043,-5.999019622802734 c0,-3.0904042720794678 0.5576116442680359,-4.272029399871826 2.6021876335144043,-5.999019622802734 c3.5315401554107666,-2.908615827560425 6.691339492797852,-2.7268271446228027 10.037009239196777,0.4544712007045746 z" id="svg_10" class=""/><path d="M62.589141845703125,190.83697128295898 c0,8.907635688781738 0.09293527156114578,9.180318832397461 2.6951229572296143,11.816250801086426 c3.252734422683716,3.1812984943389893 6.691339492797852,3.3630869388580322 11.059297561645508,0.8180481791496277 l2.973928689956665,-1.8178848028182983 l0,1.9087791442871094 c0,1.3634135723114014 0.4646763503551483,1.8178848028182983 2.1375112533569336,1.5452021360397339 c1.9516408443450928,-0.27268272638320923 2.0445759296417236,-0.5453654527664185 2.0445759296417236,-11.6344633102417 c0,-11.089097023010254 -0.09293527156114578,-11.361780166625977 -2.0445759296417236,-11.6344633102417 c-2.0445759296417236,-0.27268272638320923 -2.1375112533569336,-0.09089424461126328 -2.1375112533569336,7.362433910369873 c0,7.544221878051758 -0.09293527156114578,7.8169050216674805 -2.880993604660034,10.089261054992676 c-3.252734422683716,2.6359331607818604 -5.204375267028809,2.908615827560425 -7.899497985839844,1.090730905532837 c-1.4869643449783325,-1.090730905532837 -1.8587054014205933,-2.6359331607818604 -2.0445759296417236,-9.998366355895996 c-0.37174108624458313,-7.8169050216674805 -0.5576116442680359,-8.725847244262695 -2.1375112533569336,-8.725847244262695 c-1.5798996686935425,0 -1.7657700777053833,0.7271539568901062 -1.7657700777053833,9.180318832397461 z" id="svg_11" class=""/><path d="M87.68167114257812,193.47289657592773 l0,11.816250801086426 l2.3233816623687744,0 c2.3233816623687744,0 2.3233816623687744,-0.09089424461126328 2.3233816623687744,-7.180644989013672 c0,-8.180481910705566 1.672834873199463,-11.270886421203613 6.505468845367432,-12.179828643798828 c2.0445759296417236,-0.4544712007045746 2.788058042526245,-1.090730905532837 2.788058042526245,-2.5450387001037598 c0,-1.7269905805587769 -0.37174108624458313,-1.9087791442871094 -2.973928689956665,-1.3634135723114014 c-1.5798996686935425,0.27268272638320923 -3.7174108028411865,1.2725193500518799 -4.646763324737549,2.0905675888061523 c-1.5798996686935425,1.3634135723114014 -1.672834873199463,1.3634135723114014 -1.672834873199463,-0.4544712007045746 c0,-1.5452021360397339 -0.5576116442680359,-1.9996733665466309 -2.3233816623687744,-1.9996733665466309 l-2.3233816623687744,0 l0,11.816250801086426 z" id="svg_12" class=""/><path d="M143.44284057617188,190.83697128295898 c0,8.907635688781738 0.09293527156114578,9.180318832397461 2.6951229572296143,11.816250801086426 c3.252734422683716,3.1812984943389893 6.691339492797852,3.3630869388580322 11.059297561645508,0.8180481791496277 l2.973928689956665,-1.8178848028182983 l0,1.9087791442871094 c0,1.3634135723114014 0.4646763503551483,1.8178848028182983 2.1375112533569336,1.5452021360397339 c1.9516408443450928,-0.27268272638320923 2.0445759296417236,-0.5453654527664185 2.0445759296417236,-11.6344633102417 c0,-11.089097023010254 -0.09293527156114578,-11.361780166625977 -2.0445759296417236,-11.6344633102417 c-2.0445759296417236,-0.27268272638320923 -2.1375112533569336,-0.09089424461126328 -2.1375112533569336,7.362433910369873 c0,7.544221878051758 -0.09293527156114578,7.8169050216674805 -2.880993604660034,10.089261054992676 c-6.505468845367432,5.362760066986084 -10.129944801330566,1.5452021360397339 -10.129944801330566,-10.907308578491211 c0,-6.089914321899414 -0.18587054312229156,-6.7261738777160645 -1.8587054014205933,-6.7261738777160645 c-1.7657700777053833,0 -1.8587054014205933,0.6362596750259399 -1.8587054014205933,9.180318832397461 z" id="svg_13" class=""/><path d="M202.36380004882812,182.56559371948242 c-1.0222879648208618,0.3635769784450531 -3.066863775253296,1.9996733665466309 -4.367958068847656,3.6357696056365967 c-3.7174108028411865,4.272029399871826 -3.5315401554107666,10.634626388549805 0.37174108624458313,14.906655311584473 c4.182086944580078,4.635606288909912 11.431038856506348,5.544548511505127 15.148449897766113,1.8178848028182983 c1.3940290212631226,-1.2725193500518799 1.4869643449783325,-1.1816251277923584 1.4869643449783325,0.7271539568901062 c0,1.1816251277923584 -0.6505469083786011,3.0904042720794678 -1.4869643449783325,4.272029399871826 c-1.3940290212631226,1.9087791442871094 -2.0445759296417236,2.0905675888061523 -6.970145225524902,1.6360963582992554 c-4.832634449005127,-0.3635769784450531 -5.483180999755859,-0.27268272638320923 -5.483180999755859,1.1816251277923584 c0,2.0905675888061523 1.7657700777053833,2.7268271446228027 7.527757167816162,2.7268271446228027 c3.7174108028411865,0 5.1114397048950195,-0.4544712007045746 7.527757167816162,-2.6359331607818604 l3.066863775253296,-2.6359331607818604 l0,-13.088770866394043 c0,-12.816088676452637 0,-12.997876167297363 -2.0445759296417236,-13.270559310913086 c-1.672834873199463,-0.27268272638320923 -2.1375112533569336,0.18178848922252655 -2.1375112533569336,1.8178848028182983 c0,1.1816251277923584 -0.27880582213401794,1.6360963582992554 -0.7434821724891663,1.090730905532837 c-1.8587054014205933,-2.7268271446228027 -7.713627815246582,-3.8175582885742188 -11.89571475982666,-2.181461811065674 zm8.364173889160156,3.726663827896118 c5.204375267028809,2.363250255584717 5.57611608505249,11.452674865722656 0.5576116442680359,13.997713088989258 c-3.6244757175445557,1.8178848028182983 -5.761987209320068,1.7269905805587769 -8.642980575561523,-0.4544712007045746 c-4.553828239440918,-3.544875383377075 -3.9032816886901855,-10.816414833068848 1.2081586122512817,-13.36145305633545 c2.880993604660034,-1.4543079137802124 3.9032816886901855,-1.4543079137802124 6.8772101402282715,-0.18178848922252655 z" id="svg_14" class=""/><path d="M227.9210205078125,183.74721908569336 c-2.0445759296417236,1.3634135723114014 -3.6244757175445557,3.4539811611175537 -4.553828239440918,5.908125400543213 c-1.2081586122512817,3.3630869388580322 -1.2081586122512817,4.272029399871826 0,7.6351165771484375 c2.5092523097991943,6.998856544494629 10.87342643737793,10.089261054992676 17.75063705444336,6.5443854331970215 c2.973928689956665,-1.4543079137802124 3.159799337387085,-3.726663827896118 0.27880582213401794,-3.2721927165985107 c-9.293526649475098,1.3634135723114014 -9.479397773742676,1.3634135723114014 -11.89571475982666,-0.9998366832733154 c-1.3010938167572021,-1.2725193500518799 -2.4163172245025635,-2.8177216053009033 -2.4163172245025635,-3.2721927165985107 c0,-0.5453654527664185 3.9032816886901855,-0.9998366832733154 9.572333335876465,-1.1816251277923584 l9.479397773742676,-0.27268272638320923 l-0.27880582213401794,-3.1812984943389893 c-0.4646763503551483,-4.272029399871826 -1.5798996686935425,-6.089914321899414 -5.1114397048950195,-8.180481910705566 c-3.9962167739868164,-2.4541444778442383 -8.921786308288574,-2.2723560333251953 -12.825067520141602,0.27268272638320923 zm11.709844589233398,3.8175582885742188 c3.7174108028411865,3.544875383377075 2.973928689956665,4.090240955352783 -5.1114397048950195,4.090240955352783 c-7.527757167816162,0 -8.364173889160156,-0.3635769784450531 -6.226663589477539,-2.908615827560425 c3.159799337387085,-3.9084525108337402 8.085368156433105,-4.453817844390869 11.338102340698242,-1.1816251277923584 z" id="svg_15" class=""/><path d="M74.67071533203125,212.1062126159668 c0,0.7271539568901062 0.4646763503551483,1.3634135723114014 0.9293527007102966,1.3634135723114014 c0.5576116442680359,0 0.9293527007102966,-0.6362596750259399 0.9293527007102966,-1.3634135723114014 c0,-0.7271539568901062 -0.37174108624458313,-1.3634135723114014 -0.9293527007102966,-1.3634135723114014 c-0.4646763503551483,0 -0.9293527007102966,0.6362596750259399 -0.9293527007102966,1.3634135723114014 z" id="svg_16" class=""/><path d="M26.80908203125,234.37528610229492 c-2.5092523097991943,2.7268271446228027 -1.2081586122512817,5.635443210601807 3.7174108028411865,7.998693466186523 c2.788058042526245,1.3634135723114014 4.182086944580078,2.5450387001037598 4.182086944580078,3.726663827896118 c0,2.5450387001037598 -3.345669746398926,3.2721927165985107 -6.133727550506592,1.4543079137802124 c-2.6021876335144043,-1.6360963582992554 -3.7174108028411865,-1.2725193500518799 -2.788058042526245,0.9089424014091492 c0.6505469083786011,1.8178848028182983 5.018504619598389,3.4539811611175537 7.713627815246582,2.7268271446228027 c1.2081586122512817,-0.27268272638320923 2.788058042526245,-1.4543079137802124 3.6244757175445557,-2.7268271446228027 c1.3940290212631226,-2.0905675888061523 1.3940290212631226,-2.4541444778442383 0.09293527156114578,-4.453817844390869 c-0.8364174365997314,-1.1816251277923584 -3.066863775253296,-2.908615827560425 -5.018504619598389,-3.8175582885742188 c-3.8103458881378174,-1.8178848028182983 -4.646763324737549,-4.181135177612305 -1.7657700777053833,-4.726500511169434 c0.9293527007102966,-0.18178848922252655 2.6951229572296143,0.18178848922252655 3.9032816886901855,0.8180481791496277 c2.880993604660034,1.4543079137802124 3.9032816886901855,0.3635769784450531 1.7657700777053833,-1.9087791442871094 c-2.2304465770721436,-2.363250255584717 -7.063080310821533,-2.363250255584717 -9.293526649475098,0 z" id="svg_17" class=""/><path d="M95.76705932617188,233.19367599487305 c-0.37174108624458313,0.27268272638320923 -0.6505469083786011,1.3634135723114014 -0.6505469083786011,2.2723560333251953 c0,0.9089424014091492 -0.37174108624458313,1.6360963582992554 -0.9293527007102966,1.6360963582992554 c-0.4646763503551483,0 -0.9293527007102966,0.6362596750259399 -0.9293527007102966,1.3634135723114014 c0,0.7271539568901062 0.4646763503551483,1.3634135723114014 0.9293527007102966,1.3634135723114014 c0.5576116442680359,0 0.9293527007102966,2.4541444778442383 0.9293527007102966,5.4536542892456055 c0,4.272029399871826 0.27880582213401794,5.4536542892456055 1.3940290212631226,5.4536542892456055 c1.1152232885360718,0 1.3940290212631226,-1.1816251277923584 1.3940290212631226,-5.362760066986084 c0,-4.544712066650391 0.27880582213401794,-5.362760066986084 1.8587054014205933,-5.81723165512085 c1.0222879648208618,-0.27268272638320923 1.8587054014205933,-0.9089424014091492 1.8587054014205933,-1.4543079137802124 c0,-0.5453654527664185 -0.8364174365997314,-0.9998366832733154 -1.8587054014205933,-0.9998366832733154 c-1.1152232885360718,0 -1.8587054014205933,-0.6362596750259399 -1.8587054014205933,-1.4543079137802124 c0,-0.9998366832733154 0.5576116442680359,-1.3634135723114014 1.7657700777053833,-0.9998366832733154 c1.1152232885360718,0.27268272638320923 2.0445759296417236,-0.09089424461126328 2.3233816623687744,-0.8180481791496277 c0.37174108624458313,-0.9089424014091492 -0.37174108624458313,-1.2725193500518799 -2.6021876335144043,-1.2725193500518799 c-1.672834873199463,0 -3.345669746398926,0.27268272638320923 -3.6244757175445557,0.6362596750259399 z" id="svg_18" class=""/><path d="M138.98193359375,233.64814376831055 c-0.6505469083786011,0.6362596750259399 -1.1152232885360718,1.5452021360397339 -1.1152232885360718,2.181461811065674 c0,0.6362596750259399 -0.5576116442680359,1.2725193500518799 -1.1152232885360718,1.5452021360397339 c-0.9293527007102966,0.3635769784450531 -0.9293527007102966,0.6362596750259399 0,1.6360963582992554 c0.6505469083786011,0.6362596750259399 1.1152232885360718,3.4539811611175537 1.1152232885360718,6.453490734100342 c0,4.090240955352783 0.27880582213401794,5.271866321563721 1.3940290212631226,5.271866321563721 c1.1152232885360718,0 1.3940290212631226,-1.1816251277923584 1.3940290212631226,-5.4536542892456055 c0,-4.817394733428955 0.18587054312229156,-5.4536542892456055 1.8587054014205933,-5.4536542892456055 c1.0222879648208618,0 1.8587054014205933,-0.6362596750259399 1.8587054014205933,-1.3634135723114014 c0,-0.8180481791496277 -0.8364174365997314,-1.3634135723114014 -1.9516408443450928,-1.3634135723114014 c-1.1152232885360718,0 -1.7657700777053833,-0.4544712007045746 -1.4869643449783325,-1.1816251277923584 c0.18587054312229156,-0.5453654527664185 1.1152232885360718,-1.090730905532837 2.0445759296417236,-1.090730905532837 c0.9293527007102966,0 1.8587054014205933,-0.5453654527664185 2.1375112533569336,-1.1816251277923584 c0.4646763503551483,-1.4543079137802124 -4.646763324737549,-1.4543079137802124 -6.133727550506592,0 z" id="svg_19" class=""/><path d="M199.2039794921875,235.92051315307617 c0,2.6359331607818604 -0.27880582213401794,3.0904042720794678 -1.1152232885360718,2.2723560333251953 c-1.672834873199463,-1.6360963582992554 -5.854922294616699,-1.3634135723114014 -8.085368156433105,0.4544712007045746 c-1.0222879648208618,0.9089424014091492 -2.2304465770721436,2.908615827560425 -2.5092523097991943,4.544712066650391 c-0.4646763503551483,2.4541444778442383 -0.09293527156114578,3.3630869388580322 2.3233816623687744,5.81723165512085 c2.4163172245025635,2.363250255584717 3.345669746398926,2.7268271446228027 5.483180999755859,2.181461811065674 c1.3940290212631226,-0.3635769784450531 3.4386050701141357,-0.6362596750259399 4.646763324737549,-0.6362596750259399 c1.9516408443450928,0.18178848922252655 2.0445759296417236,-0.09089424461126328 2.0445759296417236,-8.907635688781738 c0,-7.453327655792236 -0.27880582213401794,-9.089424133300781 -1.3940290212631226,-9.089424133300781 c-1.0222879648208618,0 -1.3940290212631226,0.9998366832733154 -1.3940290212631226,3.3630869388580322 zm-0.9293527007102966,5.81723165512085 c2.6021876335144043,4.726500511169434 -2.6021876335144043,9.271212577819824 -6.505468845367432,5.81723165512085 c-2.0445759296417236,-1.8178848028182983 -2.3233816623687744,-3.3630869388580322 -0.9293527007102966,-5.999019622802734 c1.3940290212631226,-2.4541444778442383 6.133727550506592,-2.363250255584717 7.434821605682373,0.18178848922252655 z" id="svg_20" class=""/><path d="M41.771636962890625,239.01090621948242 c-4.925569534301758,3.8175582885742188 -2.0445759296417236,11.998039245605469 4.182086944580078,11.907145500183105 c8.085368156433105,-0.18178848922252655 7.341886520385742,0.5453654527664185 7.341886520385742,-6.817068099975586 l0,-6.7261738777160645 l-4.553828239440918,-0.09089424461126328 c-3.345669746398926,-0.09089424461126328 -5.297310829162598,0.4544712007045746 -6.970145225524902,1.7269905805587769 zm7.620691776275635,1.9087791442871094 c0.6505469083786011,0.6362596750259399 1.1152232885360718,2.181461811065674 1.1152232885360718,3.4539811611175537 c0,4.272029399871826 -3.9032816886901855,5.999019622802734 -6.8772101402282715,3.0904042720794678 c-2.973928689956665,-2.8177216053009033 -1.3010938167572021,-7.6351165771484375 2.6951229572296143,-7.6351165771484375 c1.1152232885360718,0 2.4163172245025635,0.4544712007045746 3.066863775253296,1.090730905532837 z" id="svg_21" class=""/><path d="M55.43310546875,238.19285202026367 c3.159799337387085,7.726010322570801 5.761987209320068,12.543405532836914 6.784275054931641,12.543405532836914 c0.7434821724891663,0 2.5092523097991943,-2.7268271446228027 4.089151859283447,-5.999019622802734 c3.159799337387085,-6.817068099975586 3.345669746398926,-7.6351165771484375 1.5798996686935425,-7.6351165771484375 c-0.6505469083786011,0 -2.2304465770721436,2.2723560333251953 -3.345669746398926,5.0900774002075195 l-2.1375112533569336,4.999183177947998 l-2.4163172245025635,-4.999183177947998 c-1.3010938167572021,-2.8177216053009033 -2.880993604660034,-5.0900774002075195 -3.7174108028411865,-5.0900774002075195 c-0.7434821724891663,0 -1.1152232885360718,0.5453654527664185 -0.8364174365997314,1.090730905532837 z" id="svg_22" class=""/><path d="M73.46258544921875,238.19285202026367 c-0.8364174365997314,0.6362596750259399 -1.9516408443450928,2.363250255584717 -2.5092523097991943,3.726663827896118 c-1.9516408443450928,5.180972099304199 3.6244757175445557,10.816414833068848 9.014720916748047,9.089424133300781 c3.7174108028411865,-1.2725193500518799 4.089151859283447,-3.3630869388580322 0.4646763503551483,-2.5450387001037598 c-2.880993604660034,0.5453654527664185 -6.691339492797852,-0.7271539568901062 -6.691339492797852,-2.2723560333251953 c0,-0.5453654527664185 2.5092523097991943,-0.9089424014091492 5.57611608505249,-0.9089424014091492 c5.018504619598389,0 5.57611608505249,-0.18178848922252655 5.57611608505249,-1.8178848028182983 c0,-4.635606288909912 -7.527757167816162,-8.089588165283203 -11.431038856506348,-5.271866321563721 zm7.713627815246582,2.999509811401367 c1.0222879648208618,1.1816251277923584 0.5576116442680359,1.3634135723114014 -3.252734422683716,1.3634135723114014 c-3.8103458881378174,0 -4.275022506713867,-0.18178848922252655 -3.252734422683716,-1.3634135723114014 c0.6505469083786011,-0.7271539568901062 2.1375112533569336,-1.3634135723114014 3.252734422683716,-1.3634135723114014 c1.1152232885360718,0 2.6021876335144043,0.6362596750259399 3.252734422683716,1.3634135723114014 z" id="svg_23" class=""/><path d="M105.89697265625,239.01090621948242 c-2.973928689956665,2.2723560333251953 -3.252734422683716,6.817068099975586 -0.6505469083786011,9.998366355895996 c2.3233816623687744,2.8177216053009033 8.178303718566895,2.7268271446228027 10.501686096191406,-0.09089424461126328 c2.4163172245025635,-2.908615827560425 2.1375112533569336,-7.453327655792236 -0.4646763503551483,-9.816577911376953 c-2.6951229572296143,-2.5450387001037598 -6.226663589477539,-2.5450387001037598 -9.386462211608887,-0.09089424461126328 zm7.713627815246582,2.0905675888061523 c1.5798996686935425,1.8178848028182983 0.9293527007102966,6.089914321899414 -1.0222879648208618,7.180644989013672 c-2.5092523097991943,1.6360963582992554 -6.31959867477417,-0.6362596750259399 -6.31959867477417,-3.726663827896118 c0,-1.3634135723114014 0.4646763503551483,-2.999509811401367 1.1152232885360718,-3.6357696056365967 c1.4869643449783325,-1.4543079137802124 4.925569534301758,-1.3634135723114014 6.226663589477539,0.18178848922252655 z" id="svg_24" class=""/><path d="M119.2796630859375,243.91917037963867 c0,5.4536542892456055 0.27880582213401794,6.817068099975586 1.3940290212631226,6.817068099975586 c1.0222879648208618,0 1.3940290212631226,-0.9998366832733154 1.3940290212631226,-3.4539811611175537 c0,-3.726663827896118 2.1375112533569336,-7.453327655792236 4.275022506713867,-7.453327655792236 c0.7434821724891663,0 1.3010938167572021,-0.6362596750259399 1.3010938167572021,-1.3634135723114014 c0,-1.6360963582992554 -1.3010938167572021,-1.7269905805587769 -3.8103458881378174,-0.4544712007045746 c-1.2081586122512817,0.6362596750259399 -1.7657700777053833,0.6362596750259399 -1.7657700777053833,0 c0,-0.4544712007045746 -0.6505469083786011,-0.9089424014091492 -1.3940290212631226,-0.9089424014091492 c-1.1152232885360718,0 -1.3940290212631226,1.3634135723114014 -1.3940290212631226,6.817068099975586 z" id="svg_25" class=""/><path d="M147.16024780273438,243.91917037963867 c0,5.4536542892456055 0.27880582213401794,6.817068099975586 1.3940290212631226,6.817068099975586 c1.0222879648208618,0 1.3940290212631226,-1.090730905532837 1.3940290212631226,-4.362923622131348 c0,-4.635606288909912 1.1152232885360718,-6.5443854331970215 3.9032816886901855,-6.5443854331970215 c0.9293527007102966,0 1.672834873199463,-0.6362596750259399 1.672834873199463,-1.3634135723114014 c0,-1.6360963582992554 -2.880993604660034,-1.8178848028182983 -4.460893154144287,-0.27268272638320923 c-0.8364174365997314,0.8180481791496277 -1.1152232885360718,0.8180481791496277 -1.1152232885360718,0 c0,-0.6362596750259399 -0.6505469083786011,-1.090730905532837 -1.3940290212631226,-1.090730905532837 c-1.1152232885360718,0 -1.3940290212631226,1.3634135723114014 -1.3940290212631226,6.817068099975586 z" id="svg_26" class=""/><path d="M158.77716064453125,239.37446212768555 c-5.57611608505249,5.362760066986084 0,13.725030899047852 7.527757167816162,11.361780166625977 c4.367958068847656,-1.4543079137802124 4.089151859283447,-2.999509811401367 -0.37174108624458313,-2.2723560333251953 c-2.880993604660034,0.4544712007045746 -3.8103458881378174,0.18178848922252655 -5.297310829162598,-1.2725193500518799 c-1.672834873199463,-1.9087791442871094 -1.672834873199463,-1.9087791442871094 3.9962167739868164,-1.9087791442871094 c5.483180999755859,0 5.761987209320068,-0.09089424461126328 5.761987209320068,-2.2723560333251953 c0,-5.544548511505127 -7.434821605682373,-7.8169050216674805 -11.61690902709961,-3.6357696056365967 zm8.642980575561523,1.9996733665466309 c0.18587054312229156,0.8180481791496277 -0.8364174365997314,1.1816251277923584 -3.4386050701141357,1.1816251277923584 c-3.6244757175445557,0 -4.646763324737549,-0.7271539568901062 -3.159799337387085,-2.181461811065674 c1.0222879648208618,-0.9998366832733154 6.133727550506592,-0.18178848922252655 6.5984039306640625,0.9998366832733154 z" id="svg_27" class=""/><path d="M174.29736328125,239.19266891479492 c-2.5092523097991943,2.6359331607818604 -2.6021876335144043,6.998856544494629 -0.27880582213401794,9.816577911376953 c2.1375112533569336,2.6359331607818604 7.713627815246582,2.908615827560425 10.129944801330566,0.4544712007045746 c1.4869643449783325,-1.6360963582992554 1.4869643449783325,-1.6360963582992554 -1.8587054014205933,-1.090730905532837 c-3.5315401554107666,0.6362596750259399 -7.248951435089111,-0.5453654527664185 -7.248951435089111,-2.181461811065674 c0,-0.5453654527664185 2.5092523097991943,-0.9089424014091492 5.57611608505249,-0.9089424014091492 c5.018504619598389,0 5.57611608505249,-0.18178848922252655 5.57611608505249,-1.8178848028182983 c0,-2.8177216053009033 -4.089151859283447,-6.3625969886779785 -7.248951435089111,-6.3625969886779785 c-1.5798996686935425,0 -3.4386050701141357,0.8180481791496277 -4.646763324737549,2.0905675888061523 zm8.178303718566895,1.9996733665466309 c1.0222879648208618,1.1816251277923584 0.5576116442680359,1.3634135723114014 -3.252734422683716,1.3634135723114014 c-3.8103458881378174,0 -4.275022506713867,-0.18178848922252655 -3.252734422683716,-1.3634135723114014 c0.6505469083786011,-0.7271539568901062 2.1375112533569336,-1.3634135723114014 3.252734422683716,-1.3634135723114014 c1.1152232885360718,0 2.6021876335144043,0.6362596750259399 3.252734422683716,1.3634135723114014 z" id="svg_28" class=""/><path d="M205.89535522460938,239.19266891479492 c-5.297310829162598,5.544548511505127 0,13.906819343566895 7.248951435089111,11.452674865722656 c5.204375267028809,-1.8178848028182983 6.505468845367432,-8.36227035522461 2.2304465770721436,-11.6344633102417 c-3.252734422683716,-2.5450387001037598 -6.970145225524902,-2.4541444778442383 -9.479397773742676,0.18178848922252655 zm7.992433547973633,1.7269905805587769 c1.9516408443450928,1.9087791442871094 1.3940290212631226,6.089914321899414 -1.1152232885360718,7.180644989013672 c-3.159799337387085,1.4543079137802124 -6.133727550506592,-0.27268272638320923 -6.133727550506592,-3.544875383377075 c0,-2.999509811401367 1.4869643449783325,-4.726500511169434 4.182086944580078,-4.726500511169434 c1.1152232885360718,0 2.4163172245025635,0.4544712007045746 3.066863775253296,1.090730905532837 z" id="svg_29" class=""/><path d="M219.6497802734375,244.10099411010742 c0,5.180972099304199 0.27880582213401794,6.635279655456543 1.3010938167572021,6.635279655456543 c1.0222879648208618,0 1.4869643449783325,-1.3634135723114014 1.672834873199463,-4.635606288909912 c0.27880582213401794,-4.999183177947998 1.9516408443450928,-7.08975076675415 4.832634449005127,-5.999019622802734 c1.1152232885360718,0.4544712007045746 1.4869643449783325,1.8178848028182983 1.4869643449783325,5.635443210601807 c0,3.8175582885742188 0.27880582213401794,4.999183177947998 1.3940290212631226,4.999183177947998 c1.0222879648208618,0 1.3940290212631226,-0.9998366832733154 1.3940290212631226,-3.726663827896118 c0,-4.726500511169434 1.3940290212631226,-7.180644989013672 4.089151859283447,-7.180644989013672 c2.4163172245025635,0 3.345669746398926,1.9087791442871094 3.345669746398926,7.453327655792236 c0,2.4541444778442383 0.37174108624458313,3.4539811611175537 1.3940290212631226,3.4539811611175537 c1.7657700777053833,0 1.9516408443450928,-7.544221878051758 0.18587054312229156,-10.907308578491211 c-1.3940290212631226,-2.7268271446228027 -5.669051170349121,-3.544875383377075 -7.992433547973633,-1.3634135723114014 c-1.4869643449783325,1.2725193500518799 -1.8587054014205933,1.2725193500518799 -2.788058042526245,0.09089424461126328 c-0.7434821724891663,-0.9089424014091492 -2.788058042526245,-1.2725193500518799 -5.761987209320068,-1.2725193500518799 l-4.553828239440918,0.09089424461126328 l0,6.7261738777160645 z" id="svg_30" class=""/></g></g></g></svg>