<svg version="1.0" xmlns="http://www.w3.org/2000/svg" width="332.62162244319916" height="320.837837934494" preserveAspectRatio="xMidYMid meet" style=""><rect id="backgroundrect" width="100%" height="100%" x="0" y="0" fill="none" stroke="none" style="" class=""/>


<g class="currentLayer" style=""><title>Layer 1</title>





























<g class="" fill="#484848" fill-opacity="1" id="svg_1"><path d="M23.299039840698242,134.60890406370163 l0,123.96028137207031 l47.048805236816406,0 l47.048805236816406,0 l-6.213992595672607,18.180845260620117 c-3.5508532524108887,9.91682243347168 -8.285323143005371,18.180845260620117 -10.356654167175293,18.180845260620117 c-2.3672351837158203,0 -3.5508532524108887,2.9750471115112305 -2.9590439796447754,7.602898120880127 c0.8877133131027222,7.272336483001709 0.8877133131027222,7.272336483001709 68.05802154541016,8.264019966125488 l67.4662094116211,0.6611214876174927 l0,-8.264019966125488 c0,-4.6278510093688965 -1.4795219898223877,-8.264019966125488 -2.9590439796447754,-8.264019966125488 c-2.9590439796447754,0 -14.795221328735352,-26.775423049926758 -14.795221328735352,-33.386634826660156 c0,-1.6528041362762451 20.12150001525879,-2.9750471115112305 45.86518478393555,-2.9750471115112305 l45.86518478393555,0 l0,-123.96028137207031 l0,-123.96028137207031 l-142.03411865234375,0 l-142.03411865234375,0 l0,123.96028137207031 zm266.3139343261719,-28.09766387939453 l0,76.02897644042969 l-122.8003158569336,0 l-122.8003158569336,0 l0,-76.02897644042969 l0,-76.02897644042969 l122.8003158569336,0 l122.8003158569336,0 l0,76.02897644042969 zm0,110.73784637451172 l0,18.180845260620117 l-60.9563102722168,0 c-60.36449432373047,0 -60.9563102722168,0 -54.150508880615234,-6.2806549072265625 c5.918087959289551,-5.288971900939941 6.509896278381348,-7.602898120880127 4.1426615715026855,-15.536356925964355 c-4.1426615715026855,-12.561309814453125 -16.570646286010742,-14.875234603881836 -23.376447677612305,-3.966729164123535 c-5.918087959289551,9.586262702941895 -5.918087959289551,11.239065170288086 1.1836175918579102,19.17252540588379 l5.918087959289551,6.6112165451049805 l-59.180885314941406,0 l-59.180885314941406,0 l0,-18.180845260620117 l0,-18.180845260620117 l122.8003158569336,0 l122.8003158569336,0 l0,18.180845260620117 zm-121.32080841064453,1.6528041362762451 c0,1.6528041362762451 -1.1836175918579102,3.3056082725524902 -2.9590439796447754,3.3056082725524902 c-1.4795219898223877,0 -2.9590439796447754,-1.6528041362762451 -2.9590439796447754,-3.3056082725524902 c0,-1.9833645820617676 1.4795219898223877,-3.3056082725524902 2.9590439796447754,-3.3056082725524902 c1.7754266262054443,0 2.9590439796447754,1.3222429752349854 2.9590439796447754,3.3056082725524902 zm36.396240234375,55.20364761352539 c2.663140058517456,8.925142288208008 5.030375003814697,16.858600616455078 5.030375003814697,18.180845260620117 c0,1.6528041362762451 -20.12150001525879,2.6444859504699707 -44.68156051635742,2.6444859504699707 c-50.007843017578125,0 -46.75289535522461,2.3139255046844482 -36.396240234375,-25.453182220458984 l4.1426615715026855,-10.9085054397583 l33.43720245361328,0 l33.43720245361328,0 l5.030375003814697,15.536356925964355 z" id="svg_2" class="" fill="#484848" fill-opacity="1"/><path d="M196.4031524658203,54.28264445066452 c-0.8877133131027222,2.6444859504699707 -1.1836175918579102,29.750469207763672 -0.8877133131027222,60.49262237548828 l0.8877133131027222,56.19532775878906 l19.23378562927246,0 l19.23378562927246,0 l0,-59.500938415527344 l0,-59.500938415527344 l-18.641977310180664,-0.9916822910308838 c-13.31569766998291,-0.6611214876174927 -18.937881469726562,0.33056074380874634 -19.825597763061523,3.3056082725524902 z" id="svg_3" class="" fill="#484848" fill-opacity="1"/><path d="M146.09938049316406,87.66925257444382 c-0.8877133131027222,2.3139255046844482 -1.1836175918579102,22.147571563720703 -0.8877133131027222,43.96459197998047 l0.8877133131027222,39.336734771728516 l19.23378562927246,0 l19.23378562927246,0 l0,-42.972900390625 l0,-42.972900390625 l-18.641977310180664,-0.9916822910308838 c-13.31569766998291,-0.6611214876174927 -18.937881469726562,0.33056074380874634 -19.825597763061523,3.6361682415008545 z" id="svg_4" class="" fill="#484848" fill-opacity="1"/><path d="M97.86689758300781,115.76692408323288 c-2.663140058517456,1.9833645820617676 -3.5508532524108887,10.247384071350098 -2.9590439796447754,29.089345932006836 l0.8877133131027222,26.114303588867188 l19.23378562927246,0 l19.23378562927246,0 l0,-28.09766387939453 l0,-28.09766387939453 l-16.274742126464844,-0.9916822910308838 c-8.877132415771484,-0.33056074380874634 -18.0501708984375,0.6611214876174927 -20.12150001525879,1.9833645820617676 z" id="svg_5" class="" fill="#484848" fill-opacity="1"/></g></g></svg>