<?xml version="1.0" standalone="no"?>
<!DOCTYPE svg PUBLIC "-//W3C//DTD SVG 20010904//EN"
 "http://www.w3.org/TR/2001/REC-SVG-20010904/DTD/svg10.dtd">
<svg version="1.0" xmlns="http://www.w3.org/2000/svg"
 width="397.000000pt" height="92.000000pt" viewBox="0 0 397.000000 92.000000"
 preserveAspectRatio="xMidYMid meet">

<g transform="translate(0.000000,92.000000) scale(0.100000,-0.100000)"
fill="#000000" stroke="none">
<path d="M0 545 l0 -375 159 0 159 0 -21 -55 c-12 -30 -28 -55 -35 -55 -8 0
-12 -9 -10 -23 3 -22 3 -22 230 -25 l228 -2 0 25 c0 14 -5 25 -10 25 -10 0
-50 81 -50 101 0 5 68 9 155 9 l155 0 0 375 0 375 -480 0 -480 0 0 -375z m900
85 l0 -230 -415 0 -415 0 0 230 0 230 415 0 415 0 0 -230z m0 -335 l0 -55
-206 0 c-204 0 -206 0 -183 19 20 16 22 23 14 47 -14 38 -56 45 -79 12 -20
-29 -20 -34 4 -58 l20 -20 -200 0 -200 0 0 55 0 55 415 0 415 0 0 -55z m-410
-5 c0 -5 -4 -10 -10 -10 -5 0 -10 5 -10 10 0 6 5 10 10 10 6 0 10 -4 10 -10z
m123 -167 c9 -27 17 -51 17 -55 0 -5 -68 -8 -151 -8 -169 0 -158 -7 -123 77
l14 33 113 0 113 0 17 -47z"/>
<path d="M585 788 c-3 -8 -4 -90 -3 -183 l3 -170 65 0 65 0 0 180 0 180 -63 3
c-45 2 -64 -1 -67 -10z"/>
<path d="M415 687 c-3 -7 -4 -67 -3 -133 l3 -119 65 0 65 0 0 130 0 130 -63 3
c-45 2 -64 -1 -67 -11z"/>
<path d="M252 602 c-9 -6 -12 -31 -10 -88 l3 -79 65 0 65 0 0 85 0 85 -55 3
c-30 1 -61 -2 -68 -6z"/>
<path d="M1236 838 c4 -7 31 -44 58 -83 50 -68 51 -72 56 -155 5 -79 7 -85 28
-88 21 -3 22 -1 22 78 l0 81 60 85 c33 46 60 86 60 89 0 3 -11 5 -25 5 -20 0
-34 -14 -71 -70 l-47 -70 -46 68 c-36 53 -52 68 -75 70 -21 3 -26 0 -20 -10z"/>
<path d="M2440 680 l0 -173 85 5 c94 6 130 22 146 66 13 34 4 68 -27 99 -24
24 -24 26 -8 44 24 27 22 75 -5 102 -18 18 -35 23 -106 26 l-85 3 0 -172z
m154 114 c39 -38 11 -74 -56 -74 l-48 0 0 45 0 45 44 0 c27 0 51 -6 60 -16z
m17 -140 c23 -21 24 -52 2 -76 -12 -13 -30 -18 -70 -18 l-53 0 0 61 0 62 51
-6 c29 -4 60 -14 70 -23z"/>
<path d="M3180 796 l0 -55 -27 15 c-61 31 -136 5 -166 -59 -21 -43 -21 -67 -3
-112 27 -63 107 -92 168 -61 23 12 27 12 32 0 3 -8 15 -14 26 -14 19 0 20 6
20 170 l0 170 -25 0 c-24 0 -25 -3 -25 -54z m-24 -89 c21 -19 27 -32 27 -67 0
-35 -6 -48 -27 -67 -31 -27 -56 -29 -95 -8 -32 16 -41 33 -41 79 0 74 80 111
136 63z"/>
<path d="M3870 795 c0 -16 -6 -25 -15 -25 -8 0 -15 -9 -15 -20 0 -11 7 -20 15
-20 12 0 15 -16 15 -88 0 -115 23 -149 84 -126 26 10 20 44 -6 41 -22 -2 -23
1 -26 86 l-3 87 26 0 c18 0 25 5 25 20 0 15 -7 20 -25 20 -20 0 -25 5 -25 25
0 20 -5 25 -25 25 -20 0 -25 -5 -25 -25z"/>
<path d="M1624 760 c-11 -4 -33 -22 -47 -40 -62 -74 -16 -194 79 -207 81 -11
147 46 147 127 0 93 -93 155 -179 120z m107 -59 c20 -20 29 -39 29 -61 0 -39
-47 -90 -84 -90 -14 0 -37 11 -53 24 -22 19 -28 32 -28 66 0 34 6 47 28 66 38
32 72 30 108 -5z"/>
<path d="M1840 669 c0 -98 1 -101 29 -130 35 -35 72 -37 119 -9 l32 20 0 -21
c0 -15 5 -20 23 -17 21 3 22 6 22 128 0 122 -1 125 -22 128 -22 3 -23 1 -23
-81 0 -83 -1 -86 -31 -111 -35 -29 -56 -32 -85 -12 -16 12 -20 29 -22 110 -4
86 -6 96 -23 96 -17 0 -19 -8 -19 -101z"/>
<path d="M2110 640 l0 -130 25 0 c25 0 25 1 25 79 0 90 18 124 70 134 22 5 30
12 30 28 0 19 -4 21 -32 15 -17 -3 -40 -14 -50 -23 -17 -15 -18 -15 -18 5 0
17 -6 22 -25 22 l-25 0 0 -130z"/>
<path d="M2710 669 c0 -98 1 -101 29 -130 35 -35 72 -37 119 -9 l32 20 0 -21
c0 -15 5 -20 23 -17 21 3 22 6 22 128 0 122 -1 125 -22 128 -22 3 -23 1 -23
-81 0 -83 -1 -86 -31 -111 -70 -59 -109 -17 -109 120 0 67 -2 74 -20 74 -19 0
-20 -7 -20 -101z"/>
<path d="M3344 760 c-11 -4 -33 -22 -47 -40 -40 -47 -38 -117 4 -164 45 -51
123 -61 163 -20 15 14 16 13 16 -8 0 -13 -7 -34 -16 -47 -15 -21 -22 -23 -75
-18 -52 4 -59 3 -59 -13 0 -23 19 -30 81 -30 40 0 55 5 81 29 l33 29 0 144 c0
141 0 143 -22 146 -18 3 -23 -2 -23 -20 0 -13 -3 -18 -8 -12 -20 30 -83 42
-128 24z m90 -41 c56 -26 60 -126 6 -154 -39 -20 -62 -19 -93 5 -49 39 -42
119 13 147 31 16 42 16 74 2z"/>
<path d="M3619 747 c-22 -15 -39 -38 -49 -65 -13 -37 -13 -47 0 -84 27 -77
117 -111 191 -72 32 16 34 41 3 36 -100 -15 -102 -15 -128 11 -14 14 -26 31
-26 36 0 6 42 11 103 13 l102 3 -3 35 c-5 47 -17 67 -55 90 -43 27 -96 25
-138 -3z m126 -42 c40 -39 32 -45 -55 -45 -81 0 -90 4 -67 32 34 43 87 49 122
13z"/>
<path d="M1970 435 c0 -8 5 -15 10 -15 6 0 10 7 10 15 0 8 -4 15 -10 15 -5 0
-10 -7 -10 -15z"/>
<path d="M1455 190 c-27 -30 -13 -62 40 -88 30 -15 45 -28 45 -41 0 -28 -36
-36 -66 -16 -28 18 -40 14 -30 -10 7 -20 54 -38 83 -30 13 3 30 16 39 30 15
23 15 27 1 49 -9 13 -33 32 -54 42 -41 20 -50 46 -19 52 10 2 29 -2 42 -9 31
-16 42 -4 19 21 -24 26 -76 26 -100 0z"/>
<path d="M2197 203 c-4 -3 -7 -15 -7 -25 0 -10 -4 -18 -10 -18 -5 0 -10 -7
-10 -15 0 -8 5 -15 10 -15 6 0 10 -27 10 -60 0 -47 3 -60 15 -60 12 0 15 13
15 59 0 50 3 59 20 64 11 3 20 10 20 16 0 6 -9 11 -20 11 -12 0 -20 7 -20 16
0 11 6 15 19 11 12 -3 22 1 25 9 4 10 -4 14 -28 14 -18 0 -36 -3 -39 -7z"/>
<path d="M2662 198 c-7 -7 -12 -17 -12 -24 0 -7 -6 -14 -12 -17 -10 -4 -10 -7
0 -18 7 -7 12 -38 12 -71 0 -45 3 -58 15 -58 12 0 15 13 15 60 0 53 2 60 20
60 11 0 20 7 20 15 0 9 -9 15 -21 15 -12 0 -19 5 -16 13 2 6 12 12 22 12 10 0
20 6 23 13 5 16 -50 16 -66 0z"/>
<path d="M3310 173 c0 -29 -3 -34 -12 -25 -18 18 -63 15 -87 -5 -11 -10 -24
-32 -27 -50 -5 -27 -1 -37 25 -64 26 -26 36 -30 59 -24 15 4 37 7 50 7 21 -2
22 1 22 98 0 82 -3 100 -15 100 -11 0 -15 -11 -15 -37z m-10 -64 c28 -52 -28
-102 -70 -64 -22 20 -25 37 -10 66 15 27 66 26 80 -2z"/>
<path d="M1616 139 c-53 -42 -22 -132 45 -131 87 2 79 -6 79 75 l0 74 -49 1
c-36 1 -57 -5 -75 -19z m82 -21 c7 -7 12 -24 12 -38 0 -47 -42 -66 -74 -34
-32 31 -14 84 29 84 12 0 26 -5 33 -12z"/>
<path d="M1763 148 c34 -85 62 -138 73 -138 8 0 27 30 44 66 34 75 36 84 17
84 -7 0 -24 -25 -36 -56 l-23 -55 -26 55 c-14 31 -31 56 -40 56 -8 0 -12 -6
-9 -12z"/>
<path d="M1957 148 c-9 -7 -21 -26 -27 -41 -21 -57 39 -119 97 -100 40 14 44
37 5 28 -31 -6 -72 8 -72 25 0 6 27 10 60 10 54 0 60 2 60 20 0 51 -81 89
-123 58z m83 -33 c11 -13 6 -15 -35 -15 -41 0 -46 2 -35 15 7 8 23 15 35 15
12 0 28 -7 35 -15z"/>
<path d="M2306 139 c-32 -25 -35 -75 -7 -110 25 -31 88 -30 113 1 26 32 23 82
-5 108 -29 28 -67 28 -101 1z m83 -23 c17 -20 10 -67 -11 -79 -27 -18 -68 7
-68 41 0 15 5 33 12 40 16 16 53 15 67 -2z"/>
<path d="M2450 85 c0 -60 3 -75 15 -75 11 0 15 11 15 38 0 41 23 82 46 82 8 0
14 7 14 15 0 18 -14 19 -41 5 -13 -7 -19 -7 -19 0 0 5 -7 10 -15 10 -12 0 -15
-15 -15 -75z"/>
<path d="M2750 85 c0 -60 3 -75 15 -75 11 0 15 12 15 48 0 51 12 72 42 72 10
0 18 7 18 15 0 18 -31 20 -48 3 -9 -9 -12 -9 -12 0 0 7 -7 12 -15 12 -12 0
-15 -15 -15 -75z"/>
<path d="M2875 135 c-60 -59 0 -151 81 -125 47 16 44 33 -4 25 -31 -5 -41 -2
-57 14 -18 21 -18 21 43 21 59 0 62 1 62 25 0 61 -80 86 -125 40z m93 -22 c2
-9 -9 -13 -37 -13 -39 0 -50 8 -34 24 11 11 66 2 71 -11z"/>
<path d="M3042 137 c-27 -29 -28 -77 -3 -108 23 -29 83 -32 109 -5 16 18 16
18 -20 12 -38 -7 -78 6 -78 24 0 6 27 10 60 10 54 0 60 2 60 20 0 31 -44 70
-78 70 -17 0 -37 -9 -50 -23z m88 -22 c11 -13 6 -15 -35 -15 -41 0 -46 2 -35
15 7 8 23 15 35 15 12 0 28 -7 35 -15z"/>
<path d="M3382 137 c-57 -61 0 -153 78 -126 56 20 70 92 24 128 -35 28 -75 27
-102 -2z m86 -19 c21 -21 15 -67 -12 -79 -34 -16 -66 3 -66 39 0 33 16 52 45
52 12 0 26 -5 33 -12z"/>
<path d="M3530 83 c0 -57 3 -73 14 -73 11 0 16 15 18 51 3 55 21 78 52 66 12
-5 16 -20 16 -62 0 -42 3 -55 15 -55 11 0 15 11 15 41 0 52 15 79 44 79 26 0
36 -21 36 -82 0 -27 4 -38 15 -38 19 0 21 83 2 120 -15 30 -61 39 -86 15 -16
-14 -20 -14 -30 -1 -8 10 -30 14 -62 14 l-49 -1 0 -74z"/>
</g>
</svg>
